<svg xmlns="http://www.w3.org/2000/svg" viewBox="0 0 271.81 62.46"><defs><style>.cls-1{fill:#58595b;}.cls-2{fill:#fff;}.cls-3{fill:#f26722;}</style></defs><title>Asset 1</title><g id="Layer_2" data-name="Layer 2"><g id="Layer_1-2" data-name="Layer 1"><g id="Header_Nav" data-name="Header Nav"><path class="cls-1" d="M110.25,2.09h-2.3L96.67,31.46l-3.48,1.32v.83h8.88v-.83l-3.53-1.18,3.53-9.46H112.8l3.63,9.76-4.86.88v.83h14v-.83l-4-1.13Zm-7.6,18.44,4.71-12.65h.1l4.71,12.65Z"/><path class="cls-1" d="M86.61,32a9.35,9.35,0,0,1-3.83.69c-6.72,0-12.31-5.2-12.31-15.2,0-10.2,4.81-14.42,9.12-14.42,4.9,0,8.19,2.45,11.48,9l.78-.1L91.47,1.5h-.54L88.82,3.17a16.76,16.76,0,0,0-7.21-1.52A16.57,16.57,0,0,0,64.79,18.32c0,9.66,6.87,16,16.72,16a19.13,19.13,0,0,0,10.15-2.6l.93-6.47-.44-.2Z"/><path class="cls-1" d="M271.37,23.86l-4.27,5.49c-1.37,1.81-2,2.6-4.9,2.6h-6V4.1l4.86-.88V2.38H246.42v.83l4.86.88V31.9l-4.86.88v.83h24.11l1.28-9.56Z"/><path class="cls-1" d="M180.13,23.71a10,10,0,0,0-5.54-5.3v-.25c5.59-1.13,8.83-4.07,8.83-7.8,0-4.81-4.36-8-11.82-8H157.38v.83l4.86.88V31.9l-4,.72v1H172v-.83l-4.86-.88V19H169c2.21,0,3.58.49,5.2,3.78l2.7,5.64c1.77,3.73,2.4,5.2,6.23,5.2h5.69v-.83a7.46,7.46,0,0,1-4.37-2C183,29.6,181.75,26.85,180.13,23.71Zm-9.61-6.08h-3.38V3.95a16.69,16.69,0,0,1,3.38-.29c4,0,7.41,2.3,7.41,7S174.49,17.63,170.52,17.63Z"/><path class="cls-1" d="M202.84,1.65c-9.42,0-15.45,7.5-15.45,16.33s5.3,16.38,15.15,16.38C212,34.36,218,26.85,218,18S212.7,1.65,202.84,1.65Zm.39,31.58c-4.9,0-10.2-3.78-10.2-15.25s4.61-15.2,9.12-15.2c4.9,0,10.2,5,10.2,15.2S207.74,33.23,203.23,33.23Z"/><path class="cls-1" d="M157.27,32.66a7.33,7.33,0,0,1-3.62-1.83c-1.42-1.23-2.7-4-4.32-7.11a10,10,0,0,0-5.54-5.3v-.25c5.59-1.13,8.83-4.07,8.83-7.8,0-4.81-4.36-8-11.82-8H126.58v.83l4.86.88V31.9l-4.86.88v.83H141.2v-.83l-4.86-.88V19h1.86c2.21,0,3.58.49,5.2,3.78l2.7,5.64c1.77,3.73,2.4,5.2,6.23,5.2h4.95Zm-17.55-15h-3.38V3.95a16.69,16.69,0,0,1,3.38-.29c4,0,7.41,2.3,7.41,7S143.7,17.63,139.73,17.63Z"/><path class="cls-1" d="M239.61,29.35c-1.37,1.81-2,2.6-4.9,2.6h-6V4.1l4.86-.88V2.38H218.93v.83l4.86.88V31.9l-4.86.88v.83H243l1.28-9.56-.44-.2Z"/><path class="cls-1" d="M214.1,46.28l1.78-.71v-.41H211v.41l1.66.71-3.29,6L206,46.13l2-.56v-.41h-7.11v.41l2,.65,4.26,7.28v5.39l-2.34.44v.41h7.4v-.41l-2.34-.44V53Zm-14.48,3.94-.89-5.06H185.92L185,50.22l.3.12,1.39-2C188,46.64,188.52,46,189.82,46h1.24V58.89l-2.34.44v.41h7.4v-.41l-2.34-.44V46h1c1.33,0,1.9.62,3.14,2.37l1.39,2Zm-19.1,8.68V46l2.34-.44v-.41h-7.4v.41l2.34.44V58.89l-2.34.44v.41h7.4v-.41Zm-7.93-3.38c0-2.25-1.33-3.26-2.93-4-.92-.38-1.9-.68-2.75-1-1.33-.56-2.37-1.24-2.37-2.69a2.38,2.38,0,0,1,2.52-2.4c1.63,0,2.75,1.15,4.5,4.06l.53-.06-.36-4.8h-.44l-.92.86a5.54,5.54,0,0,0-2.93-.77c-2.52,0-5,1.69-5,4.44a3.75,3.75,0,0,0,2.43,3.55c.86.41,1.84.71,2.72,1.07,1.6.62,2.93,1.36,2.93,3.17a2.67,2.67,0,0,1-3,2.61c-1.69,0-3.14-1.15-4.86-4.59l-.5.06.3,5.24h.41l.95-.8a8.15,8.15,0,0,0,3.55.74c2.58,0,5.21-1.75,5.21-4.68m-17.53-6.43a3.23,3.23,0,0,1-3.55,3.29h-1.45V46a14.57,14.57,0,0,1,1.6-.09,3.12,3.12,0,0,1,3.41,3.2m2.9-.24c0-2.22-1.81-3.7-5.36-3.7h-7.49v.41l2.22.44V58.89l-2.22.44v.41h7.17v-.41l-2.22-.44V53.06h.74a2.28,2.28,0,0,1,2.58,1.69l1.13,2.55c.74,1.69,1.13,2.46,3.14,2.46h2.52v-.44a3,3,0,0,1-1.78-.83,10.27,10.27,0,0,1-1.81-3.23,3.79,3.79,0,0,0-3-2.52v-.15c2.9-.5,4.38-1.84,4.38-3.73m-16.2-3.7H129.21v.41l2.22.44V58.89l-2.22.44v.41h13l.56-4.94-.33-.12-2.13,2.9a2.54,2.54,0,0,1-2.61,1.33h-3.55V52.65h1.15c1.18,0,1.9.59,2.34,2.1l.24.83h.44V49h-.44l-.24.89c-.41,1.51-1.15,2-2.34,2h-1.15V46h3A2.85,2.85,0,0,1,140,47.46L141.92,50l.33-.21Zm-15.69,1.13,1.57-.71v-.41h-4.29v.41l1.57.74-4,10.48L116.87,46l2.13-.44v-.41h-7v.41l1.92.56,5.6,13.77h.95ZM108,58.89V46l2.34-.44v-.41h-7.4v.41l2.34.44V58.89l-2.34.44v.41h7.4v-.41Zm-20.93-.21-1.9.65v.41h4.71v-.41l-2-.65V47.35h.21l7.64,10.1L97.59,60h1.15V46.22l1.9-.65v-.41H95.93v.41l2,.65v9.36h-.21l-6-7.94-1.84-2.49H85.16v.41l1.9.62ZM80.27,46.25v8.11c0,2.55-1.21,4.5-4,4.5-3,0-4.47-1.3-4.47-4.5V46L74,45.57v-.41H66.92v.41l2.22.44V55c0,3.43,2.25,5.24,6.13,5.24,3.67,0,5.86-2.22,5.86-5.45v-8.5l1.75-.68v-.41H78.49v.41Z"/><path class="cls-2" d="M25,62.39A38.25,38.25,0,0,1,15,58.5a35.44,35.44,0,0,1-8.22-6.17A29.65,29.65,0,0,1,.13,42.07L0,41.74V0H50.71V41.74l-.13.33A29.7,29.7,0,0,1,44,52.33a35.4,35.4,0,0,1-8.21,6.17,38.11,38.11,0,0,1-10,3.88l-.38.07Z"/><polygon class="cls-3" points="6.51 6.5 19.93 6.5 22.71 1.95 1.96 1.95 1.96 18.62 6.51 18.62 6.51 6.5"/><path class="cls-3" d="M25.38,7a.46.46,0,0,0-.46.46v2h.91v-2A.45.45,0,0,0,25.38,7Z"/><path class="cls-3" d="M23.45,7a.46.46,0,0,0-.46.46v2h.91v-2A.45.45,0,0,0,23.45,7Z"/><path class="cls-3" d="M27.31,7a.46.46,0,0,0-.46.46v2h.91v-2A.45.45,0,0,0,27.31,7Z"/><polygon class="cls-3" points="27.71 6.5 28.03 6.27 25.38 1.95 22.71 6.27 23.03 6.5 27.71 6.5"/><path class="cls-3" d="M38.62,33.86c0-.46-1.24-.73-1.24-.73s-1.25.27-1.25.73v5.49h2.49Z"/><path class="cls-3" d="M42.09,33.86c0-.46-1.24-.73-1.24-.73s-1.25.27-1.25.73v5.49h2.49Z"/><path class="cls-3" d="M21.27,22.53c0-.32-.18-.54-.4-.48h0a.71.71,0,0,0-.4.69V27l.8-.18Z"/><path class="cls-3" d="M26.85,42.74c0-.56-1.48-.88-1.48-.88s-1.48.32-1.48.88v6.7h3Z"/><path class="cls-3" d="M21.07,31.86c0-.55-1-.67-1-.67s-1,.51-1,1.05v6.55l2-.29Z"/><path class="cls-3" d="M21.07,42.68c0-.55-1-.75-1-.75s-1,.44-1,1v6.55l2-.15Z"/><path class="cls-3" d="M19.66,22.94c0-.32-.17-.53-.39-.47a.7.7,0,0,0-.4.69v4.23l.79-.18Z"/><path class="cls-3" d="M24.74,22.43a.57.57,0,0,0-.57-.57.59.59,0,0,0-.59.59v4.35h1.16Z"/><path class="cls-3" d="M27.12,22.43a.57.57,0,0,0-.57-.57.59.59,0,0,0-.59.59v4.35h1.16Z"/><path class="cls-3" d="M26.85,31.86c0-.56-1.48-.88-1.48-.88s-1.48.32-1.48.88v6.7h3Z"/><path class="cls-3" d="M16.15,20.18l6.25-1.75h5.94l6.26,1.75L28.34,10H22.4Zm8.93-4.48H23.29V13.91h1.79Zm2.38,0H25.67V13.91h1.79Zm.3-2.78-.3.49H23.28L23,12.91Z"/><path class="cls-3" d="M17.62,21.89l-1-.66,5.77-1.62h5.94l5.8,1.62.5-.33-6.3-1.76H22.4l-6.27,1.76H2v8.62H17.62Zm-6.48,5.25H8.66V24.54h2.48Zm3.48,0H12.14V24.54h2.48Zm0-3.28h-6l-.51-.68h6.94Z"/><path class="cls-3" d="M28,1.95l2.81,4.55H44.23V20.91h-8.1l-2,1.32v7.3H44.23v11a22.91,22.91,0,0,1-2.12,3.91V43.18H39.62v4.33l-1,1V43.18H36.13v6.28h1.42a29.93,29.93,0,0,1-4.41,3.08V21.88l-4.8-1.3V54.82c-1.24.48-2.27.79-3,1a34.29,34.29,0,0,1-7.52-3.11l-.25-.14V31.81H2v9.57c6,15.65,23.43,19.1,23.43,19.1S42.81,57,48.77,41.38V1.95ZM38.62,27.16H36.14V24.54h2.48Zm3.48,0H39.62V24.54h2.48Zm0-3.31h-6l-.51-.66h6.94ZM8.66,34.15a6.13,6.13,0,0,1,3-1h0a6.13,6.13,0,0,1,3,1v5.21h-6Zm6,16.44a27,27,0,0,1-3.36-2.93,23.85,23.85,0,0,1-2.61-3.21v-.09h0a3,3,0,0,1,6,0h0Z"/></g></g></g></svg>