<?xml version="1.0" encoding="utf-8"?>
<!-- Generator: Adobe Illustrator 22.0.1, SVG Export Plug-In . SVG Version: 6.00 Build 0)  -->
<svg version="1.1" id="Layer_1" xmlns="http://www.w3.org/2000/svg" xmlns:xlink="http://www.w3.org/1999/xlink" x="0px" y="0px"
	 width="250.1px" height="91.44px" viewBox="0 0 250.1 91.44" style="enable-background:new 0 0 250.1 91.44;" xml:space="preserve"
	>
<path d="M95.47,21.84v6h-0.6c-0.48-1.86-1.25-3.24-2.3-4.12c-1.06-0.88-2.46-1.32-4.22-1.32c-2.28,0-4.09,0.82-5.42,2.47
	c-1.33,1.65-2,3.84-2,6.59c0,3.01,0.7,5.43,2.11,7.26c1.41,1.83,3.25,2.75,5.53,2.75c3.16,0,5.49-1.47,7-4.43l0.53,0.5
	c-0.67,1.6-1.76,2.87-3.26,3.8c-1.5,0.93-3.21,1.4-5.12,1.4c-1.81,0-3.49-0.43-5.04-1.29c-1.55-0.86-2.74-2.04-3.58-3.54
	c-0.84-1.5-1.26-3.23-1.26-5.19c0-3.2,0.98-5.85,2.94-7.95c1.96-2.1,4.44-3.15,7.43-3.15c1,0,2.27,0.18,3.82,0.53
	c0.87,0.2,1.46,0.31,1.8,0.31c0.51,0,0.87-0.21,1.08-0.63H95.47z M108.35,24.34l2.85,8.52h-5.66L108.35,24.34z M118.97,42.25v-0.58
	c-0.82,0-1.42-0.15-1.79-0.45c-0.37-0.3-0.73-0.96-1.07-1.98l-5.83-17.33h-2.07l-5.55,16.6c-0.42,1.23-0.84,2.03-1.25,2.42
	c-0.41,0.39-0.99,0.64-1.73,0.74v0.58h5.18v-0.58c-1.06-0.02-1.59-0.46-1.59-1.31c0-0.46,0.17-1.2,0.51-2.22l1.37-4.04h6.44
	l1.86,5.58c0.1,0.29,0.15,0.55,0.15,0.77c0,0.8-0.58,1.2-1.73,1.2v0.58H118.97z M129.61,22.9c1.53,0,2.76,0.42,3.69,1.26
	c0.93,0.84,1.39,1.94,1.39,3.3c0,1.39-0.42,2.52-1.26,3.36c-0.84,0.85-1.99,1.27-3.46,1.27h-2.46V22.9H129.61 M129.13,32.94
	c0.88,0,1.68,0.29,2.4,0.86c0.72,0.57,1.73,1.9,3,3.97c1.2,1.97,2.22,3.47,3.06,4.49h4.11v-0.58c-0.64-0.05-1.25-0.34-1.84-0.89
	c-0.59-0.55-1.41-1.7-2.46-3.45c-0.94-1.58-1.69-2.71-2.27-3.39c-0.58-0.68-1.17-1.21-1.78-1.6c2.76-0.82,4.14-2.47,4.14-4.94
	c0-1.53-0.61-2.79-1.82-3.78c-1.21-0.99-2.84-1.48-4.87-1.48h-8.23v0.58c0.9,0,1.5,0.23,1.81,0.68c0.31,0.45,0.46,1.27,0.46,2.46
	v12.62c0,1.19-0.15,2.02-0.47,2.49c-0.31,0.47-0.91,0.71-1.8,0.71v0.58h7.22v-0.58c-0.86,0-1.45-0.24-1.79-0.71
	c-0.34-0.47-0.5-1.3-0.5-2.49v-5.53H129.13 M155.93,23.11c1.29,0,2.25,0.2,2.9,0.61c0.64,0.41,1.09,1.16,1.34,2.27h0.39v-4.62h-0.63
	c-0.61,0.5-1.67,0.76-3.18,0.76h-10.52c-1.47,0-2.47-0.25-3.01-0.76h-0.6v4.62h0.6c0.08-1.03,0.44-1.77,1.07-2.21
	c0.63-0.45,1.65-0.67,3.04-0.67h2.91v15.37c0,1.16-0.16,1.98-0.47,2.46c-0.32,0.49-0.92,0.73-1.8,0.73v0.58h7.1v-0.58
	c-0.86,0-1.43-0.21-1.73-0.64c-0.3-0.42-0.45-1.24-0.45-2.45V23.11H155.93 M180.24,38.47c0,1.2-0.15,2.04-0.45,2.5
	c-0.3,0.46-0.9,0.7-1.79,0.7v0.58h7.18v-0.58c-0.86,0-1.45-0.23-1.78-0.7c-0.33-0.46-0.5-1.3-0.5-2.5V25.92
	c0-1.2,0.17-2.04,0.5-2.51c0.33-0.47,0.92-0.7,1.78-0.7v-0.58H178v0.58c0.87,0,1.46,0.23,1.77,0.67c0.31,0.45,0.47,1.3,0.47,2.53
	v5.73h-10.93v-5.73c0-1.17,0.17-1.99,0.51-2.48c0.34-0.49,0.94-0.73,1.82-0.73v-0.58h-7.25v0.58c0.86,0,1.46,0.23,1.79,0.68
	c0.33,0.45,0.49,1.3,0.49,2.53v12.55c0,1.18-0.16,2.01-0.48,2.48c-0.32,0.48-0.92,0.71-1.79,0.71v0.58h7.25v-0.58
	c-0.88,0-1.49-0.24-1.82-0.7c-0.34-0.47-0.51-1.3-0.51-2.49v-5.84h10.93V38.47 M197.57,24.34l2.84,8.52h-5.66L197.57,24.34z
	 M208.18,42.25v-0.58c-0.82,0-1.42-0.15-1.79-0.45c-0.37-0.3-0.73-0.96-1.07-1.98l-5.83-17.33h-2.07l-5.55,16.6
	c-0.42,1.23-0.84,2.03-1.25,2.42c-0.41,0.39-0.99,0.64-1.73,0.74v0.58h5.18v-0.58c-1.06-0.02-1.59-0.46-1.59-1.31
	c0-0.46,0.17-1.2,0.51-2.22l1.37-4.04h6.44l1.86,5.58c0.1,0.29,0.15,0.55,0.15,0.77c0,0.8-0.57,1.2-1.72,1.2v0.58H208.18z
	 M222.66,33.54v0.58h0.77c0.82,0,1.39,0.25,1.72,0.74c0.32,0.49,0.49,1.36,0.49,2.59v2.18c0,1.43-1.13,2.15-3.37,2.15
	c-2.37,0-4.34-0.97-5.91-2.91c-1.57-1.94-2.35-4.39-2.35-7.34c0-2.69,0.68-4.88,2.04-6.58c1.36-1.7,3.1-2.55,5.22-2.55
	c1.69,0,3.16,0.49,4.42,1.48c1.26,0.99,2,2.31,2.23,3.96h0.57v-5.93h-0.63c-0.18,0.44-0.56,0.67-1.13,0.67
	c-0.43,0-1.06-0.12-1.88-0.36c-1.29-0.39-2.48-0.58-3.58-0.58c-1.82,0-3.55,0.49-5.17,1.47c-1.62,0.98-2.89,2.32-3.8,4
	c-0.91,1.68-1.36,3.57-1.36,5.66c0,3,1.04,5.41,3.11,7.24c2.07,1.83,4.96,2.75,8.67,2.75c0.71,0,1.7-0.05,2.99-0.15
	c1.28-0.1,2.16-0.22,2.63-0.34v-5.41c0-1,0.19-1.7,0.57-2.11c0.38-0.41,1.02-0.61,1.91-0.61v-0.58H222.66z M247.38,29.75
	c-0.13,0.77-0.33,1.29-0.61,1.56c-0.28,0.28-0.8,0.41-1.57,0.41h-5.61v-8.61h5.78c1.28,0,2.11,0.16,2.49,0.47
	c0.38,0.32,0.68,0.95,0.88,1.91h0.38v-3.36h-14.46v0.58c0.88,0,1.48,0.23,1.79,0.69c0.32,0.46,0.48,1.3,0.48,2.52v12.58
	c0,1.18-0.15,2-0.46,2.46c-0.31,0.46-0.91,0.7-1.81,0.7v0.58h14.46l0.92-3.76h-0.6c-0.38,0.83-0.73,1.44-1.06,1.81
	c-0.33,0.37-0.74,0.63-1.21,0.77c-0.48,0.14-1.35,0.21-2.6,0.21h-3.51c-0.54,0-0.91-0.1-1.14-0.31c-0.22-0.21-0.33-0.56-0.33-1.06
	v-7.2h4.98c1.04,0,1.71,0.11,2.02,0.32c0.31,0.22,0.57,0.76,0.79,1.61h0.6v-4.89H247.38 M92.62,50.97
	c-0.15,0.32-0.42,0.48-0.81,0.48c-0.25,0-0.7-0.08-1.35-0.23c-1.15-0.27-2.11-0.4-2.86-0.4c-2.24,0-4.1,0.79-5.57,2.36
	c-1.47,1.57-2.21,3.56-2.21,5.96c0,1.47,0.32,2.76,0.94,3.89c0.63,1.13,1.52,2.01,2.68,2.66c1.16,0.64,2.42,0.97,3.78,0.97
	c1.44,0,2.72-0.35,3.84-1.05c1.12-0.7,1.94-1.65,2.44-2.85l-0.4-0.37c-1.13,2.21-2.88,3.32-5.25,3.32c-1.71,0-3.09-0.69-4.15-2.06
	c-1.06-1.38-1.59-3.19-1.59-5.45c0-2.06,0.5-3.7,1.5-4.94c1-1.24,2.36-1.85,4.07-1.85c1.32,0,2.37,0.33,3.16,0.99
	c0.79,0.66,1.37,1.69,1.73,3.09h0.45v-4.5H92.62z M99.49,58.69c0-2.2,0.53-3.97,1.58-5.3c1.06-1.33,2.47-1.99,4.23-1.99
	c1.66,0,3.01,0.68,4.06,2.03c1.04,1.35,1.57,3.14,1.57,5.37c0,2.08-0.53,3.81-1.6,5.2c-1.06,1.39-2.45,2.08-4.16,2.08
	c-1.69,0-3.06-0.68-4.11-2.04C100.01,62.68,99.49,60.9,99.49,58.69 M97.18,58.67c0,2.24,0.77,4.13,2.32,5.67
	c1.55,1.54,3.44,2.32,5.68,2.32c2.25,0,4.15-0.77,5.71-2.32c1.56-1.54,2.33-3.44,2.33-5.67c0-2.2-0.77-4.05-2.32-5.57
	c-1.54-1.52-3.43-2.28-5.66-2.28c-2.3,0-4.22,0.75-5.76,2.24C97.95,54.56,97.18,56.43,97.18,58.67 M128.53,62.99
	c-0.32,1.06-0.67,1.76-1.04,2.08c-0.37,0.32-1.01,0.48-1.94,0.48h-2.99c-0.67,0-1.12-0.1-1.35-0.31c-0.24-0.21-0.36-0.59-0.36-1.14
	V54.01c0-0.85,0.13-1.46,0.39-1.82c0.26-0.37,0.69-0.55,1.29-0.55v-0.44h-5.39v0.44c0.65,0,1.1,0.16,1.34,0.48
	c0.24,0.32,0.37,0.89,0.37,1.71v9.5c0,0.91-0.13,1.56-0.39,1.94c-0.26,0.39-0.7,0.58-1.32,0.58v0.44h10.91l0.92-3.29H128.53
	 M142.9,62.99c-0.32,1.06-0.67,1.76-1.04,2.08c-0.37,0.32-1.01,0.48-1.94,0.48h-2.99c-0.67,0-1.12-0.1-1.35-0.31
	c-0.24-0.21-0.35-0.59-0.35-1.14V54.01c0-0.85,0.13-1.46,0.39-1.82c0.26-0.37,0.69-0.55,1.29-0.55v-0.44h-5.39v0.44
	c0.65,0,1.1,0.16,1.34,0.48c0.24,0.32,0.36,0.89,0.36,1.71v9.5c0,0.91-0.13,1.56-0.39,1.94c-0.26,0.39-0.7,0.58-1.32,0.58v0.44
	h10.91l0.92-3.29H142.9 M155.2,56.9c-0.09,0.58-0.25,0.97-0.46,1.17c-0.21,0.2-0.6,0.31-1.17,0.31h-4.21v-6.46h4.34
	c0.96,0,1.58,0.12,1.87,0.35c0.29,0.24,0.51,0.71,0.66,1.43h0.28v-2.52h-10.84v0.44c0.66,0,1.11,0.17,1.35,0.51
	c0.24,0.34,0.36,0.97,0.36,1.89v9.44c0,0.89-0.11,1.5-0.35,1.85c-0.23,0.35-0.68,0.52-1.36,0.52v0.44h10.84l0.69-2.82h-0.45
	c-0.28,0.63-0.55,1.08-0.8,1.36c-0.25,0.28-0.55,0.47-0.91,0.57c-0.36,0.1-1.01,0.15-1.95,0.15h-2.63c-0.4,0-0.69-0.08-0.85-0.23
	c-0.17-0.16-0.25-0.42-0.25-0.8v-5.4h3.73c0.78,0,1.28,0.08,1.52,0.25c0.23,0.16,0.43,0.56,0.59,1.21h0.45V56.9H155.2 M169.75,59.75
	v0.44h0.58c0.62,0,1.05,0.19,1.29,0.55c0.24,0.37,0.37,1.02,0.37,1.95v1.63c0,1.08-0.84,1.61-2.53,1.61c-1.78,0-3.26-0.73-4.43-2.19
	c-1.18-1.46-1.76-3.29-1.76-5.51c0-2.01,0.51-3.66,1.53-4.93c1.02-1.27,2.32-1.91,3.91-1.91c1.26,0,2.37,0.37,3.32,1.11
	c0.94,0.74,1.5,1.73,1.68,2.96h0.42v-4.45h-0.47c-0.14,0.33-0.42,0.5-0.85,0.5c-0.33,0-0.8-0.09-1.41-0.27
	c-0.97-0.29-1.86-0.44-2.68-0.44c-1.37,0-2.66,0.37-3.88,1.11c-1.22,0.74-2.17,1.74-2.85,3c-0.68,1.26-1.02,2.67-1.02,4.24
	c0,2.25,0.78,4.06,2.33,5.43c1.55,1.37,3.72,2.06,6.5,2.06c0.53,0,1.28-0.04,2.24-0.12c0.96-0.08,1.62-0.16,1.97-0.26v-4.06
	c0-0.75,0.14-1.27,0.43-1.58c0.29-0.31,0.76-0.46,1.43-0.46v-0.44H169.75z M188.29,56.9c-0.1,0.58-0.25,0.97-0.46,1.17
	c-0.21,0.2-0.6,0.31-1.17,0.31h-4.21v-6.46h4.34c0.96,0,1.58,0.12,1.86,0.35c0.29,0.24,0.51,0.71,0.66,1.43h0.28v-2.52h-10.84v0.44
	c0.66,0,1.11,0.17,1.35,0.51c0.24,0.34,0.36,0.97,0.36,1.89v9.44c0,0.89-0.12,1.5-0.35,1.85c-0.23,0.35-0.68,0.52-1.36,0.52v0.44
	h10.84l0.69-2.82h-0.45c-0.28,0.63-0.55,1.08-0.8,1.36c-0.25,0.28-0.55,0.47-0.91,0.57c-0.36,0.1-1.01,0.15-1.95,0.15h-2.63
	c-0.4,0-0.69-0.08-0.85-0.23c-0.17-0.16-0.25-0.42-0.25-0.8v-5.4h3.73c0.78,0,1.28,0.08,1.51,0.25c0.23,0.16,0.43,0.56,0.59,1.21
	h0.45V56.9H188.29"/>
<g>
	<polygon style="fill:#FFFFFF;" points="67.94,81.32 34.63,90.06 1.37,81.32 1.37,5.35 34.56,13.38 67.94,5.35 	"/>
	<polygon style="fill:none;stroke:#D0202E;stroke-width:2.6399;stroke-miterlimit:10;" points="67.94,81.32 34.63,90.06 1.37,81.32 
		1.37,5.35 34.56,13.38 67.94,5.35 	"/>
	<polygon style="fill:#D0202E;" points="63.3,76.68 34.58,84.85 6.01,76.89 6.01,0.02 34.59,7.73 63.3,0.02 	"/>
	<path style="fill:#FFFFFF;" d="M31.97,69.73c0,0-4.38-7.69-10.04-11.25c-7.14-4.49-8.49-15.09-5.37-20.63c0,0-0.24,8.93,9.13,14.78
		C25.69,52.64,33.37,56.65,31.97,69.73 M35.85,73.73c11.75-16.04,2.22-28.41,2.22-28.41c-9.58-15.99-1.54-27.91-1.54-27.91
		c-10.67,7.11-10.86,24.9-6.15,31.86C36.95,58.98,35.85,73.73,35.85,73.73 M51.32,42.04c0,0-8.93,3.04-6.45,12.86
		c0,0,1.6,6.77-2.61,12.95c0,0,9.29-3.33,8.38-12.6C50.22,50.9,48.06,49.27,51.32,42.04"/>
</g>
</svg>
