<?xml version="1.0" encoding="UTF-8" standalone="no" ?>
<!DOCTYPE svg PUBLIC "-//W3C//DTD SVG 1.1//EN" "http://www.w3.org/Graphics/SVG/1.1/DTD/svg11.dtd">
<svg xmlns="http://www.w3.org/2000/svg" xmlns:xlink="http://www.w3.org/1999/xlink" version="1.1" width="1080" height="1080" viewBox="0 0 1080 1080" xml:space="preserve">
<desc>Created with Fabric.js 5.2.4</desc>
<defs>
</defs>
<g transform="matrix(1 0 0 1 540 540)" id="6a80cca7-a9ac-40e5-8624-b59100be8544"  >
<rect style="stroke: none; stroke-width: 1; stroke-dasharray: none; stroke-linecap: butt; stroke-dashoffset: 0; stroke-linejoin: miter; stroke-miterlimit: 4; fill: rgb(255,255,255); fill-rule: nonzero; opacity: 1; visibility: hidden;" vector-effect="non-scaling-stroke"  x="-540" y="-540" rx="0" ry="0" width="1080" height="1080" />
</g>
<g transform="matrix(1 0 0 1 540 540)" id="2fa240c9-0aef-444a-bcc7-b0b5990d8891"  >
</g>
<g transform="matrix(5.86 0 0 5.86 540 540)"  >
<g style=""   >
		<g transform="matrix(1 0 0 1 -77.7 -11.05)" id="Layer_1"  >
<path style="stroke: none; stroke-width: 1; stroke-dasharray: none; stroke-linecap: butt; stroke-dashoffset: 0; stroke-linejoin: miter; stroke-miterlimit: 4; fill: rgb(0,37,84); fill-rule: nonzero; opacity: 1;" vector-effect="non-scaling-stroke"  transform=" translate(-14.45, -18.55)" d="M 0.6 30.1 L 2.2 29.5 C 3.5 29 3.7 28.5 3.7 26.8 L 3.7 10.2 C 3.7 8.5 3.6 7.999999999999999 2.2 7.499999999999999 L 0.6 6.9 L 0.6 6.1 L 12.5 6.1 L 12.5 6.8999999999999995 L 10.9 7.499999999999999 C 9.6 7.999999999999999 9.4 8.5 9.4 10.2 L 9.4 15.799999999999999 C 9.4 16.7 9.6 16.9 10.6 16.9 L 18.3 16.9 C 19.3 16.9 19.5 16.7 19.5 15.799999999999999 L 19.5 10.2 C 19.5 8.5 19.4 7.999999999999999 18 7.499999999999999 L 16.4 6.8999999999999995 L 16.4 6.1 L 28.299999999999997 6.1 L 28.299999999999997 6.8999999999999995 L 26.699999999999996 7.499999999999999 C 25.399999999999995 7.999999999999999 25.199999999999996 8.5 25.199999999999996 10.2 L 25.199999999999996 26.9 C 25.199999999999996 28.599999999999998 25.299999999999997 29.099999999999998 26.699999999999996 29.599999999999998 L 28.299999999999997 30.2 L 28.299999999999997 31 L 16.4 31 L 16.4 30.2 L 18 29.599999999999998 C 19.3 29.099999999999998 19.5 28.599999999999998 19.5 26.9 L 19.5 19.9 C 19.5 19 19.3 18.799999999999997 18.3 18.799999999999997 L 10.600000000000001 18.799999999999997 C 9.600000000000001 18.799999999999997 9.400000000000002 18.999999999999996 9.400000000000002 19.9 L 9.400000000000002 26.9 C 9.400000000000002 28.599999999999998 9.500000000000002 29.099999999999998 10.900000000000002 29.599999999999998 L 12.500000000000002 30.2 L 12.500000000000002 31 L 0.6 31 L 0.6 30.1 z" stroke-linecap="round" />
</g>
		<g transform="matrix(1 0 0 1 -49.6 -11)" id="Layer_1"  >
<path style="stroke: none; stroke-width: 1; stroke-dasharray: none; stroke-linecap: butt; stroke-dashoffset: 0; stroke-linejoin: miter; stroke-miterlimit: 4; fill: rgb(0,37,84); fill-rule: nonzero; opacity: 1;" vector-effect="non-scaling-stroke"  transform=" translate(-42.55, -18.6)" d="M 31.6 30.1 L 33.2 29.5 C 34.5 29 34.7 28.5 34.7 26.8 L 34.7 10.2 C 34.7 8.5 34.6 7.999999999999999 33.2 7.499999999999999 L 31.6 6.8999999999999995 L 31.6 6.1 L 52.2 6.1 L 52.6 6.3999999999999995 L 52.6 12.399999999999999 L 51.1 12.399999999999999 L 50 10.8 C 48.5 8.4 48.2 8 44.2 8 C 40.7 8 40.400000000000006 8.3 40.400000000000006 10 L 40.400000000000006 15.7 C 40.400000000000006 16.8 40.60000000000001 17 41.60000000000001 17 L 44.30000000000001 17 C 45.60000000000001 17 45.70000000000001 16.8 46.500000000000014 15.3 L 47.30000000000001 13.8 L 48.20000000000001 13.8 L 48.20000000000001 22 L 47.30000000000001 22 L 46.40000000000001 20.5 C 45.500000000000014 19 45.40000000000001 18.8 44.20000000000001 18.8 L 41.50000000000001 18.8 C 40.50000000000001 18.8 40.300000000000004 18.900000000000002 40.300000000000004 20.1 L 40.300000000000004 25.900000000000002 C 40.300000000000004 28.700000000000003 40.7 29.200000000000003 44.800000000000004 29.200000000000003 C 48.50000000000001 29.200000000000003 49.00000000000001 28.400000000000002 50.400000000000006 26.300000000000004 L 52.00000000000001 23.800000000000004 L 53.50000000000001 23.800000000000004 L 53.50000000000001 30.800000000000004 L 53.10000000000001 31.100000000000005 L 31.6 31.100000000000005 L 31.6 30.1 z" stroke-linecap="round" />
</g>
		<g transform="matrix(1 0 0 1 -23.2 -11.05)" id="Layer_1"  >
<path style="stroke: none; stroke-width: 1; stroke-dasharray: none; stroke-linecap: butt; stroke-dashoffset: 0; stroke-linejoin: miter; stroke-miterlimit: 4; fill: rgb(0,37,84); fill-rule: nonzero; opacity: 1;" vector-effect="non-scaling-stroke"  transform=" translate(-68.95, -18.55)" d="M 56.5 30.1 L 58.1 29.5 C 59.4 29 59.6 28.5 59.6 26.8 L 59.6 10.2 C 59.6 8.5 59.5 7.999999999999999 58.1 7.499999999999999 L 56.5 6.8999999999999995 L 56.5 6.1 L 70.8 6.1 C 75.1 6.1 78.5 7.1 78.5 11.5 C 78.5 17.3 73.9 17.7 73.1 18.3 C 72.89999999999999 18.400000000000002 73.3 18.8 73.5 19.1 C 74.3 20.1 74.1 19.6 80.2 28.8 C 80.60000000000001 29.3 80.9 29.6 81.4 30.1 L 81.4 30.900000000000002 L 76.5 30.900000000000002 C 75.5 30.900000000000002 74.5 30.3 73.9 29.3 L 68.30000000000001 20.6 C 67.60000000000001 19.6 67.4 19.400000000000002 66.9 19.400000000000002 L 66.10000000000001 19.400000000000002 C 65.4 19.400000000000002 65.30000000000001 19.6 65.30000000000001 20.700000000000003 L 65.30000000000001 26.900000000000002 C 65.30000000000001 28.6 65.4 29.1 66.80000000000001 29.6 L 68.4 30.200000000000003 L 68.4 31.000000000000004 L 56.5 31.000000000000004 L 56.5 30.1 z M 65.3 16.4 C 65.3 17.4 65.5 17.599999999999998 66.8 17.599999999999998 C 70 17.599999999999998 72.39999999999999 16.599999999999998 72.39999999999999 13.299999999999997 C 72.39999999999999 10.999999999999996 71.99999999999999 8.099999999999998 67.6 8.099999999999998 C 65.69999999999999 8.099999999999998 65.3 8.299999999999997 65.3 9.499999999999998 L 65.3 16.4 z" stroke-linecap="round" />
</g>
		<g transform="matrix(1 0 0 1 2.6 -11)" id="Layer_1"  >
<path style="stroke: none; stroke-width: 1; stroke-dasharray: none; stroke-linecap: butt; stroke-dashoffset: 0; stroke-linejoin: miter; stroke-miterlimit: 4; fill: rgb(0,37,84); fill-rule: nonzero; opacity: 1;" vector-effect="non-scaling-stroke"  transform=" translate(-94.75, -18.6)" d="M 82.8 30.1 C 84.3 28.5 98.7 9.600000000000001 98.7 8.600000000000001 C 98.7 8.200000000000001 98.3 8.000000000000002 96.4 8.000000000000002 C 90.7 8.000000000000002 89.60000000000001 8.100000000000001 88.10000000000001 10.400000000000002 L 86.7 12.500000000000002 L 85 12.500000000000002 L 85 6.500000000000002 L 85.4 6.200000000000002 L 106.4 6.200000000000002 L 106.7 6.800000000000002 C 101.4 13.600000000000001 90.8 27.5 90.8 28.400000000000002 C 90.8 29.000000000000004 91.3 29.1 94 29.1 C 99.8 29.1 100.9 29 103 26 L 104.6 23.7 L 106.3 23.7 L 106.3 30.6 L 105.89999999999999 31 L 83.2 31 L 82.8 30.1 z" stroke-linecap="round" />
</g>
		<g transform="matrix(1 0 0 1 23.9 -11.05)" id="Layer_1"  >
<path style="stroke: none; stroke-width: 1; stroke-dasharray: none; stroke-linecap: butt; stroke-dashoffset: 0; stroke-linejoin: miter; stroke-miterlimit: 4; fill: rgb(0,37,84); fill-rule: nonzero; opacity: 1;" vector-effect="non-scaling-stroke"  transform=" translate(-116.05, -18.55)" d="M 110.1 30.1 L 111.69999999999999 29.5 C 112.99999999999999 29 113.19999999999999 28.5 113.19999999999999 26.8 L 113.19999999999999 10.2 C 113.19999999999999 8.5 113.1 7.999999999999999 111.69999999999999 7.499999999999999 L 110.1 6.8999999999999995 L 110.1 6.1 L 122 6.1 L 122 6.8999999999999995 L 120.4 7.499999999999999 C 119.10000000000001 7.999999999999999 118.9 8.5 118.9 10.2 L 118.9 26.9 C 118.9 28.599999999999998 119 29.099999999999998 120.4 29.599999999999998 L 122 30.2 L 122 31 L 110.1 31 L 110.1 30.1 z" stroke-linecap="round" />
</g>
		<g transform="matrix(1 0 0 1 46.9 -11)" id="Layer_1"  >
<path style="stroke: none; stroke-width: 1; stroke-dasharray: none; stroke-linecap: butt; stroke-dashoffset: 0; stroke-linejoin: miter; stroke-miterlimit: 4; fill: rgb(0,37,84); fill-rule: nonzero; opacity: 1;" vector-effect="non-scaling-stroke"  transform=" translate(-139.05, -18.6)" d="M 125.5 30.1 L 127.1 29.5 C 128.5 28.9 128.6 28.2 128.6 26.2 L 128.6 11.3 C 128.6 10 128.4 9.4 127.19999999999999 8.4 L 125.49999999999999 7 L 125.49999999999999 6.1 L 132.89999999999998 6.1 L 133.29999999999998 6.3999999999999995 C 133.99999999999997 7.3999999999999995 136.29999999999998 10.399999999999999 138.6 13.3 L 146.1 22.4 C 146.4 22.799999999999997 146.7 23 146.79999999999998 23 C 146.99999999999997 23 147.1 22.8 147.1 22 L 147.1 10.9 C 147.1 8.9 147 8.4 145.4 7.800000000000001 L 143 6.9 L 143 6.1 L 152.6 6.1 L 152.6 6.8999999999999995 L 151 7.6 C 149.6 8.2 149.5 8.9 149.5 10.899999999999999 L 149.5 30.7 L 149.1 31 L 146.1 31 L 145.7 30.7 C 145.2 30.099999999999998 142.79999999999998 26.9 140.39999999999998 24 L 132.39999999999998 14.2 C 131.79999999999998 13.5 131.59999999999997 13.299999999999999 131.39999999999998 13.299999999999999 C 131.2 13.299999999999999 131.09999999999997 13.499999999999998 131.09999999999997 14.299999999999999 L 131.09999999999997 26.299999999999997 C 131.09999999999997 28.299999999999997 131.19999999999996 28.799999999999997 132.79999999999995 29.4 L 135.19999999999996 30.299999999999997 L 135.19999999999996 31.099999999999998 L 125.59999999999997 31.099999999999998 L 125.59999999999997 30.1 z" stroke-linecap="round" />
</g>
		<g transform="matrix(1 0 0 1 73.75 -11)" id="Layer_1"  >
<path style="stroke: none; stroke-width: 1; stroke-dasharray: none; stroke-linecap: butt; stroke-dashoffset: 0; stroke-linejoin: miter; stroke-miterlimit: 4; fill: rgb(0,37,84); fill-rule: nonzero; opacity: 1;" vector-effect="non-scaling-stroke"  transform=" translate(-165.9, -18.6)" d="M 175.7 30.1 C 173.7 30.5 169.79999999999998 31.5 165.7 31.5 C 157.29999999999998 31.5 153.2 27.6 153.2 19.1 C 153.2 9.500000000000002 158.7 5.700000000000001 166.89999999999998 5.700000000000001 C 171.89999999999998 5.700000000000001 176.49999999999997 7.000000000000001 176.49999999999997 9.5 C 176.49999999999997 9.8 176.39999999999998 10.2 176.29999999999998 10.5 L 173.89999999999998 14.3 L 173.09999999999997 14.3 C 172.69999999999996 12.3 171.29999999999995 7.6000000000000005 165.99999999999997 7.6000000000000005 C 161.19999999999996 7.6000000000000005 159.59999999999997 11.600000000000001 159.59999999999997 17.2 C 159.59999999999997 24.6 161.29999999999995 29.5 167.39999999999998 29.5 C 170.09999999999997 29.5 170.29999999999998 28.8 170.29999999999998 26.9 L 170.29999999999998 24.9 C 170.29999999999998 23.5 170.1 23.2 168.79999999999998 22.599999999999998 L 166.7 21.7 L 166.7 20.9 L 178.6 20.9 L 178.6 21.7 L 177.2 22.3 C 176.2 22.7 176.1 23.1 176.1 24.900000000000002 L 176.1 29.700000000000003 L 175.7 30.1 z" stroke-linecap="round" />
</g>
		<g transform="matrix(1 0 0 1 89.35 -21.1)" id="Layer_1"  >
<path style="stroke: none; stroke-width: 1; stroke-dasharray: none; stroke-linecap: butt; stroke-dashoffset: 0; stroke-linejoin: miter; stroke-miterlimit: 4; fill: rgb(0,37,84); fill-rule: nonzero; opacity: 1;" vector-effect="non-scaling-stroke"  transform=" translate(-181.5, -8.5)" d="M 181.5 5.7 C 182 5.7 182.4 5.8 182.9 6.1000000000000005 C 183.3 6.300000000000001 183.70000000000002 6.7 183.9 7.1000000000000005 C 184.1 7.500000000000001 184.3 8 184.3 8.5 C 184.3 9 184.20000000000002 9.4 183.9 9.9 C 183.70000000000002 10.3 183.3 10.700000000000001 182.9 10.9 C 182.5 11.1 182 11.3 181.5 11.3 C 181 11.3 180.6 11.200000000000001 180.1 10.9 C 179.7 10.700000000000001 179.29999999999998 10.3 179.1 9.9 C 178.9 9.5 178.7 9 178.7 8.5 C 178.7 8 178.79999999999998 7.6 179.1 7.1 C 179.29999999999998 6.699999999999999 179.7 6.3 180.1 6.1 C 180.6 5.8 181 5.7 181.5 5.7 z M 181.5 6.1 C 181.1 6.1 180.7 6.199999999999999 180.4 6.3999999999999995 C 180 6.6 179.70000000000002 6.8999999999999995 179.5 7.199999999999999 C 179.3 7.6 179.2 7.8999999999999995 179.2 8.299999999999999 C 179.2 8.7 179.29999999999998 9.1 179.5 9.399999999999999 C 179.7 9.799999999999999 180 9.999999999999998 180.4 10.2 C 180.8 10.399999999999999 181.20000000000002 10.5 181.6 10.5 C 181.99999999999997 10.5 182.4 10.4 182.79999999999998 10.2 C 183.2 10 183.49999999999997 9.7 183.7 9.399999999999999 C 183.89999999999998 8.999999999999998 184 8.7 184 8.299999999999999 C 184 7.899999999999999 183.9 7.499999999999999 183.7 7.199999999999999 C 183.5 6.799999999999999 183.2 6.6 182.79999999999998 6.3999999999999995 C 182.3 6.2 181.9 6.1 181.5 6.1 z M 180.3 9.9 L 180.3 7 L 181.3 7 C 181.60000000000002 7 181.9 7 182.10000000000002 7.1 C 182.3 7.199999999999999 182.40000000000003 7.199999999999999 182.50000000000003 7.3999999999999995 C 182.60000000000002 7.499999999999999 182.60000000000002 7.699999999999999 182.60000000000002 7.8 C 182.60000000000002 8 182.50000000000003 8.2 182.40000000000003 8.4 C 182.20000000000005 8.6 182.00000000000003 8.6 181.80000000000004 8.700000000000001 C 181.90000000000003 8.700000000000001 182.00000000000003 8.8 182.10000000000005 8.9 C 182.20000000000005 9 182.40000000000006 9.200000000000001 182.50000000000006 9.5 L 182.90000000000006 10.1 L 182.30000000000007 10.1 L 182.00000000000006 9.6 C 181.80000000000007 9.2 181.60000000000005 9 181.50000000000006 8.9 C 181.40000000000006 8.8 181.30000000000007 8.8 181.10000000000005 8.8 L 180.80000000000004 8.8 L 180.80000000000004 10 L 180.3 10 z M 180.8 8.3 L 181.4 8.3 C 181.70000000000002 8.3 181.9 8.3 182 8.200000000000001 C 182.1 8.100000000000001 182.2 8.000000000000002 182.2 7.900000000000001 C 182.2 7.800000000000002 182.2 7.700000000000001 182.1 7.700000000000001 C 182.1 7.600000000000001 182 7.600000000000001 181.9 7.500000000000001 C 181.8 7.500000000000001 181.6 7.400000000000001 181.4 7.400000000000001 L 180.8 7.400000000000001 L 180.8 8.3 z" stroke-linecap="round" />
</g>
		<g transform="matrix(1 0 0 1 -78.65 16.3)" id="Layer_1"  >
<path style="stroke: none; stroke-width: 1; stroke-dasharray: none; stroke-linecap: butt; stroke-dashoffset: 0; stroke-linejoin: miter; stroke-miterlimit: 4; fill: rgb(0,37,84); fill-rule: nonzero; opacity: 1;" vector-effect="non-scaling-stroke"  transform=" translate(-13.5, -45.9)" d="M 26.4 46.3 L 0.6 46.3 C 0.39999999999999997 46.3 0.19999999999999996 46.099999999999994 0.19999999999999996 45.9 C 0.19999999999999996 45.699999999999996 0.39999999999999997 45.5 0.6 45.5 L 26.400000000000002 45.5 C 26.6 45.5 26.8 45.7 26.8 45.9 C 26.8 46.1 26.7 46.3 26.4 46.3 z" stroke-linecap="round" />
</g>
		<g transform="matrix(1 0 0 1 73.25 16.3)" id="Layer_1"  >
<path style="stroke: none; stroke-width: 1; stroke-dasharray: none; stroke-linecap: butt; stroke-dashoffset: 0; stroke-linejoin: miter; stroke-miterlimit: 4; fill: rgb(0,37,84); fill-rule: nonzero; opacity: 1;" vector-effect="non-scaling-stroke"  transform=" translate(-165.4, -45.9)" d="M 178.3 46.3 L 152.5 46.3 C 152.3 46.3 152.1 46.099999999999994 152.1 45.9 C 152.1 45.699999999999996 152.29999999999998 45.5 152.5 45.5 L 178.3 45.5 C 178.5 45.5 178.70000000000002 45.7 178.70000000000002 45.9 C 178.7 46.1 178.5 46.3 178.3 46.3 z" stroke-linecap="round" />
</g>
		<g transform="matrix(1 0 0 1 -55.85 16.55)" id="Layer_1"  >
<path style="stroke: none; stroke-width: 1; stroke-dasharray: none; stroke-linecap: butt; stroke-dashoffset: 0; stroke-linejoin: miter; stroke-miterlimit: 4; fill: rgb(0,37,84); fill-rule: nonzero; opacity: 1;" vector-effect="non-scaling-stroke"  transform=" translate(-36.3, -46.15)" d="M 33.3 40.2 L 33.3 47.300000000000004 C 33.3 48.1 33.5 48.800000000000004 33.8 49.400000000000006 C 34.3 50.2 35.099999999999994 50.7 36.199999999999996 50.7 C 37.49999999999999 50.7 38.4 50.2 38.9 49.300000000000004 C 39.199999999999996 48.800000000000004 39.3 48.1 39.3 47.300000000000004 L 39.3 40.2 L 40.9 40.2 L 40.9 46.7 C 40.9 48.1 40.699999999999996 49.2 40.3 50 C 39.599999999999994 51.4 38.3 52.1 36.3 52.1 C 34.3 52.1 33 51.4 32.3 50 C 31.9 49.2 31.699999999999996 48.1 31.699999999999996 46.7 L 31.699999999999996 40.2 L 33.3 40.2 z" stroke-linecap="round" />
</g>
		<g transform="matrix(1 0 0 1 -41.7 16.35)" id="Layer_1"  >
<path style="stroke: none; stroke-width: 1; stroke-dasharray: none; stroke-linecap: butt; stroke-dashoffset: 0; stroke-linejoin: miter; stroke-miterlimit: 4; fill: rgb(0,37,84); fill-rule: nonzero; opacity: 1;" vector-effect="non-scaling-stroke"  transform=" translate(-50.45, -45.95)" d="M 45.9 40.2 L 47.699999999999996 40.2 L 53.49999999999999 49.5 L 53.49999999999999 40.2 L 54.99999999999999 40.2 L 54.99999999999999 51.7 L 53.199999999999996 51.7 L 47.4 42.400000000000006 L 47.4 51.7 L 45.9 51.7 L 45.9 40.2 z" stroke-linecap="round" />
</g>
		<g transform="matrix(1 0 0 1 -30.95 16.35)" id="Layer_1"  >
<path style="stroke: none; stroke-width: 1; stroke-dasharray: none; stroke-linecap: butt; stroke-dashoffset: 0; stroke-linejoin: miter; stroke-miterlimit: 4; fill: rgb(0,37,84); fill-rule: nonzero; opacity: 1;" vector-effect="non-scaling-stroke"  transform=" translate(-61.2, -45.95)" d="M 60.4 40.2 L 62 40.2 L 62 51.7 L 60.4 51.7 L 60.4 40.2 z" stroke-linecap="round" />
</g>
		<g transform="matrix(1 0 0 1 -20.8 16.35)" id="Layer_1"  >
<path style="stroke: none; stroke-width: 1; stroke-dasharray: none; stroke-linecap: butt; stroke-dashoffset: 0; stroke-linejoin: miter; stroke-miterlimit: 4; fill: rgb(0,37,84); fill-rule: nonzero; opacity: 1;" vector-effect="non-scaling-stroke"  transform=" translate(-71.35, -45.95)" d="M 68 40.2 L 71.3 50 L 74.6 40.2 L 76.39999999999999 40.2 L 72.19999999999999 51.7 L 70.49999999999999 51.7 L 66.29999999999998 40.2 L 68 40.2 z" stroke-linecap="round" />
</g>
		<g transform="matrix(1 0 0 1 -7.3 16.35)" id="Layer_1"  >
<path style="stroke: none; stroke-width: 1; stroke-dasharray: none; stroke-linecap: butt; stroke-dashoffset: 0; stroke-linejoin: miter; stroke-miterlimit: 4; fill: rgb(0,37,84); fill-rule: nonzero; opacity: 1;" vector-effect="non-scaling-stroke"  transform=" translate(-84.85, -45.95)" d="M 80.6 40.2 L 89 40.2 L 89 41.6 L 82.1 41.6 L 82.1 45.1 L 88.39999999999999 45.1 L 88.39999999999999 46.4 L 82.1 46.4 L 82.1 50.3 L 89.1 50.3 L 89.1 51.699999999999996 L 80.6 51.699999999999996 L 80.6 40.2 z" stroke-linecap="round" />
</g>
		<g transform="matrix(1 0 0 1 6.4 16.4)" id="Layer_1"  >
<path style="stroke: none; stroke-width: 1; stroke-dasharray: none; stroke-linecap: butt; stroke-dashoffset: 0; stroke-linejoin: miter; stroke-miterlimit: 4; fill: rgb(0,37,84); fill-rule: nonzero; opacity: 1;" vector-effect="non-scaling-stroke"  transform=" translate(-98.55, -46)" d="M 93.9 40.2 L 99.10000000000001 40.2 C 100.00000000000001 40.2 100.7 40.300000000000004 101.2 40.6 C 102.3 41.1 102.8 42 102.8 43.300000000000004 C 102.8 44.00000000000001 102.7 44.6 102.39999999999999 45.00000000000001 C 102.1 45.400000000000006 101.69999999999999 45.800000000000004 101.19999999999999 46.10000000000001 C 101.69999999999999 46.30000000000001 101.99999999999999 46.50000000000001 102.19999999999999 46.80000000000001 C 102.39999999999999 47.10000000000001 102.6 47.60000000000001 102.6 48.30000000000001 L 102.69999999999999 49.80000000000001 C 102.69999999999999 50.20000000000001 102.79999999999998 50.60000000000001 102.79999999999998 50.80000000000001 C 102.89999999999998 51.20000000000001 103.09999999999998 51.40000000000001 103.29999999999998 51.500000000000014 L 103.29999999999998 51.80000000000001 L 101.39999999999998 51.80000000000001 C 101.29999999999998 51.70000000000001 101.29999999999998 51.60000000000001 101.29999999999998 51.40000000000001 C 101.29999999999998 51.20000000000001 101.19999999999999 50.90000000000001 101.19999999999999 50.500000000000014 L 101.1 48.600000000000016 C 101.1 47.80000000000002 100.8 47.30000000000002 100.3 47.100000000000016 C 100 47.000000000000014 99.6 46.90000000000001 98.89999999999999 46.90000000000001 L 95.39999999999999 46.90000000000001 L 95.39999999999999 51.80000000000001 L 93.8 51.80000000000001 L 93.8 40.2 z M 99 45.5 C 99.7 45.5 100.3 45.4 100.7 45.1 C 101.10000000000001 44.800000000000004 101.3 44.300000000000004 101.3 43.5 C 101.3 42.7 101 42.1 100.39999999999999 41.8 C 100.1 41.599999999999994 99.69999999999999 41.599999999999994 99.19999999999999 41.599999999999994 L 95.49999999999999 41.599999999999994 L 95.49999999999999 45.49999999999999 L 99 45.49999999999999 z" stroke-linecap="round" />
</g>
		<g transform="matrix(1 0 0 1 19.5 16.15)" id="Layer_1"  >
<path style="stroke: none; stroke-width: 1; stroke-dasharray: none; stroke-linecap: butt; stroke-dashoffset: 0; stroke-linejoin: miter; stroke-miterlimit: 4; fill: rgb(0,37,84); fill-rule: nonzero; opacity: 1;" vector-effect="non-scaling-stroke"  transform=" translate(-111.65, -45.75)" d="M 108.9 48 C 108.9 48.7 109.10000000000001 49.2 109.30000000000001 49.6 C 109.80000000000001 50.4 110.70000000000002 50.7 111.9 50.7 C 112.5 50.7 113 50.6 113.4 50.400000000000006 C 114.30000000000001 50.10000000000001 114.7 49.50000000000001 114.7 48.7 C 114.7 48.1 114.5 47.6 114.10000000000001 47.400000000000006 C 113.7 47.10000000000001 113.10000000000001 46.900000000000006 112.30000000000001 46.7 L 110.80000000000001 46.300000000000004 C 109.80000000000001 46.1 109.10000000000001 45.800000000000004 108.70000000000002 45.50000000000001 C 108.00000000000001 45.00000000000001 107.60000000000002 44.300000000000004 107.60000000000002 43.300000000000004 C 107.60000000000002 42.300000000000004 107.90000000000002 41.400000000000006 108.60000000000002 40.7 C 109.30000000000003 40 110.30000000000003 39.7 111.60000000000002 39.7 C 112.80000000000003 39.7 113.80000000000003 40 114.60000000000002 40.6 C 115.40000000000002 41.2 115.80000000000003 42.1 115.80000000000003 43.4 L 114.30000000000003 43.4 C 114.20000000000003 42.8 114.10000000000002 42.3 113.80000000000003 42 C 113.30000000000003 41.4 112.60000000000002 41.1 111.50000000000003 41.1 C 110.60000000000002 41.1 110.00000000000003 41.300000000000004 109.60000000000002 41.7 C 109.20000000000002 42.1 109.00000000000003 42.5 109.00000000000003 43.1 C 109.00000000000003 43.7 109.20000000000003 44.1 109.70000000000003 44.300000000000004 C 110.00000000000003 44.50000000000001 110.70000000000003 44.7 111.70000000000003 44.900000000000006 L 113.30000000000003 45.300000000000004 C 114.10000000000002 45.50000000000001 114.60000000000002 45.7 115.10000000000002 46.00000000000001 C 115.80000000000003 46.50000000000001 116.20000000000002 47.300000000000004 116.20000000000002 48.300000000000004 C 116.20000000000002 49.6 115.70000000000002 50.50000000000001 114.80000000000001 51.00000000000001 C 113.9 51.60000000000001 112.80000000000001 51.800000000000004 111.60000000000001 51.800000000000004 C 110.2 51.800000000000004 109.10000000000001 51.400000000000006 108.30000000000001 50.7 C 107.50000000000001 50 107.10000000000001 49 107.10000000000001 47.7 L 108.9 47.7 z" stroke-linecap="round" />
</g>
		<g transform="matrix(1 0 0 1 30.25 16.35)" id="Layer_1"  >
<path style="stroke: none; stroke-width: 1; stroke-dasharray: none; stroke-linecap: butt; stroke-dashoffset: 0; stroke-linejoin: miter; stroke-miterlimit: 4; fill: rgb(0,37,84); fill-rule: nonzero; opacity: 1;" vector-effect="non-scaling-stroke"  transform=" translate(-122.4, -45.95)" d="M 121.6 40.2 L 123.19999999999999 40.2 L 123.19999999999999 51.7 L 121.6 51.7 L 121.6 40.2 z" stroke-linecap="round" />
</g>
		<g transform="matrix(1 0 0 1 39.75 16.4)" id="Layer_1"  >
<path style="stroke: none; stroke-width: 1; stroke-dasharray: none; stroke-linecap: butt; stroke-dashoffset: 0; stroke-linejoin: miter; stroke-miterlimit: 4; fill: rgb(0,37,84); fill-rule: nonzero; opacity: 1;" vector-effect="non-scaling-stroke"  transform=" translate(-131.9, -46)" d="M 136.6 40.2 L 136.6 41.6 L 132.7 41.6 L 132.7 51.8 L 131.1 51.8 L 131.1 41.6 L 127.19999999999999 41.6 L 127.19999999999999 40.2 L 136.6 40.2 z" stroke-linecap="round" />
</g>
		<g transform="matrix(1 0 0 1 52.35 16.4)" id="Layer_1"  >
<path style="stroke: none; stroke-width: 1; stroke-dasharray: none; stroke-linecap: butt; stroke-dashoffset: 0; stroke-linejoin: miter; stroke-miterlimit: 4; fill: rgb(0,37,84); fill-rule: nonzero; opacity: 1;" vector-effect="non-scaling-stroke"  transform=" translate(-144.5, -46)" d="M 139.4 40.2 L 141.20000000000002 40.2 L 144.50000000000003 45.7 L 147.80000000000004 40.2 L 149.60000000000005 40.2 L 145.20000000000005 47.1 L 145.20000000000005 51.800000000000004 L 143.60000000000005 51.800000000000004 L 143.60000000000005 47.1 L 139.4 40.2 z" stroke-linecap="round" />
</g>
</g>
</g>
</svg>