<?xml version="1.0" encoding="utf-8"?>
<!-- Generator: Adobe Illustrator 14.0.0, SVG Export Plug-In . SVG Version: 6.00 Build 43363)  -->
<!DOCTYPE svg PUBLIC "-//W3C//DTD SVG 1.1//EN" "http://www.w3.org/Graphics/SVG/1.1/DTD/svg11.dtd">
<svg version="1.1" id="Layer_1" xmlns="http://www.w3.org/2000/svg" xmlns:xlink="http://www.w3.org/1999/xlink" x="0px" y="0px"
	 width="250px" height="151px" viewBox="0 0 250 151" enable-background="new 0 0 250 151" xml:space="preserve">
<g>
	<rect x="93.356" y="21.7" fill="#FFFFFF" width="62.8" height="62.91"/>
	<path fill="#FFCC00" d="M133.338,58.885h2.678v1.773l-0.935,2.587h-1.107l0.294-0.563h-4.447l0.035-0.021l0.981-2.293v-1.946
		l-0.004-0.03h2.505V58.885z M130.313,52.564V38.899c0-0.463,0.308-0.844,0.692-0.844c0.134,0,0.269,0.065,0.376,0.143
		c-0.186-0.147-0.298-0.39-0.298-0.679c0-0.463,0.307-0.831,0.692-0.831c0.061,0,0.112,0.008,0.164,0.026v-5.144l-0.009,0.039
		l-1.821-0.212v-0.64l1.83,0.212v-1.268l-1.83-0.203v-1.709l-0.688-0.035l-0.039-0.013l0.028,26.906l0.928-2.111L130.313,52.564z
		 M132.598,52.34c0-0.329-0.268-0.597-0.597-0.597s-0.597,0.268-0.597,0.597c0,0.242,0.146,0.454,0.354,0.545l-1.852,4.572h4.188
		l-1.86-4.572C132.442,52.794,132.598,52.582,132.598,52.34z M133.861,27.15l-2.038-2.388l-2.76-0.29v-3.69l2.323,0.359v-0.623
		l-5.615-0.874v-1.787l-1.044-2.132l-1.047,2.146v8.284l-0.024,0.064h2.176L133.861,27.15z M119.367,57.483l-1.611-4.594
		c0.206-0.095,0.355-0.312,0.355-0.549c0-0.329-0.267-0.597-0.595-0.597c-0.329,0-0.598,0.268-0.598,0.597
		c0,0.242,0.156,0.454,0.361,0.545l-1.596,4.572h3.551L119.367,57.483z M131.975,30.975l-0.034-0.004V31L131.975,30.975z
		 M141.163,28.958v8.371h1.955l-0.294-1.198l0.424-0.013v-0.705l-0.523-0.008l-0.394-1.705l0.406,0.017v-0.701l-0.515-0.004
		l-0.351-1.631l0.354,0.013v-0.705l-0.437,0.021l-0.333-1.752l0.285,0.018l-0.021-0.744h-0.817l0.026,0.735L141.163,28.958z
		 M119.378,63.128h7.038l0.87-2.267h-8.316l-0.173-0.813h9.244V57.98l-0.028,0.056h-1.627v-4.797h-0.406l-0.004-14.911
		c0-0.458,0.309-0.796,0.685-0.796c0.139,0,0.277,0.065,0.379,0.143c-0.182-0.147-0.294-0.39-0.294-0.679
		c0-0.463,0.305-0.831,0.688-0.831c0.379,0,0.688,0.376,0.688,0.839c0,0.29-0.113,0.532-0.301,0.683
		c0.107-0.086,0.246-0.143,0.383-0.143c0.069,0,0.146,0.017,0.212,0.043l0.004-6.416l-0.018,0.009l-2.422-0.307v-0.614l2.427,0.312
		l0.013-0.125v-1.138l-2.439-0.277v-2.016l-2.299,0.026v26.171l-0.438,0.013v4.875h-2.937V27.7l-0.728,0.121v29.563l-0.027,0.074
		l-0.493,1.021h-2.763v1.769l-1.04,2.479v0.026h4.356L119.378,63.128z M115.857,52.889c0.009-0.004,0.013-0.009,0.017-0.013
		l-0.004-0.013L115.857,52.889z M115.868,64.088h0.078v-0.035L115.868,64.088z M143.663,81.92h3.547l-0.899-1.835V64.993h-3.227
		v-1.25h-4.339v15.092l-0.87,2.124h6.394L143.663,81.92z M143.373,63.392h3.374l-1.046-2.734v-6.865h-2.852v-1.28h-3.897v4.451
		h3.897v0.64h-3.897v2.241l-0.935,2.557h5.905L143.373,63.392z M142.963,52.31h3.378l-0.64-1.484v-1.886h-3.171v-1.107h-3.578v2.444
		l-0.757,1.246h5.382L142.963,52.31z M142.906,47.512h3.785l-1.636-3.141h-2.785v-6.03l-2.072,0.004v5.005h0.705l-2.535,3.288h4.889
		L142.906,47.512z M116.233,58.478h0.063v-0.035L116.233,58.478z M106.704,36.217l-0.24,1.168h1.91v-8.262l0.3-0.03v-0.705h-0.741
		v0.705l0.244-0.004l-0.299,1.596l-0.627-0.004v0.762h0.465l-0.313,1.6l-0.517-0.017l0.004,0.805l0.264,0.021l-0.298,1.622h-0.427
		l0.014,0.723L106.704,36.217z M112.833,28.894l-0.62,0.398l-0.071,13.242l0.691-0.489V28.894z M110.648,52.4l-3.953,0.03v4.317
		l3.953,0.039V52.4z M110.648,57.457h-3.953v2.241l-0.874,2.591h5.909l-0.394,0.904h1.613l0.783-2.682v-1.626h-3.085V57.457z
		 M110.536,47.918l-3.636-0.017v2.401l-0.694,1.155h2.738l2.261,0.009l-0.669-1.077V47.918z M130.461,64.11v21.776h3.114v-5.771
		c1.177-1.898,2.501-2.443,2.501-2.443s0.363,0.151,0.865,0.558v-1.232l-0.018-0.022c-0.498-0.367-0.848-0.515-0.848-0.515
		s-1.389,0.567-2.501,2.35l-0.086-1.017c1.111-1.778,2.5-2.172,2.5-2.172s0.39,0.108,0.926,0.48l0.026,0.061V65.806h-3.254v-1.687
		L130.461,64.11z M138.784,82.413v3.474h7.181v-2.328h-2.76v-1.146H138.784z M138.516,18.685v8.755l1.072,1.951l-0.636,0.697v6.194
		l0.021,0.052l0.554-3.019v-2.691l0.801-1.233l-1.025-2.033v-3.24l0.043-3.716L138.516,18.685 M138.516,18.685 M134.848,16.392
		l-0.753,2.449v6.272l1.367,2.388l-0.788,0.666v13.15l1.367,1.454l-0.463,0.813v14.453h1.683V43.584l0.528-0.787l-1.428-1.25V29.011
		l0.899-0.788l-1.859-2.876v-3.171l1.427,0.813v3.231l0.493,0.437v-3.979l-1.92-1.107v-1.54L134.848,16.392z M125.601,78.974
		c0.928-1.332,1.655-2.258,2.412-2.859c0,0,0.298,0.294,0.727,0.753v-1.605c-2.029-2.241-4.012-3.071-4.012-3.071
		s-3.08,1.25-5.557,5.091l-0.082-1.484c2.47-3.841,5.554-4.715,5.554-4.715s1.985,0.562,4.049,2.772l0.009,0.013v-1.272
		c-0.629-0.683-1.763-1.527-1.763-1.527v-5.351h-7.821v-1.631h-3.17v21.798h9.654V78.974z M110.885,82.451h-4.566v3.436h4.566
		V82.451z M110.078,24.083v3.184l-0.801,2.185l0.438,0.796v3.201l0.791,3.634l0.03-0.03v-6.904l-0.554-0.584l1.015-2.271
		l-0.009-3.209h0.009v-5.364l-0.947,1.683V21.7L110.078,24.083z M116.322,17.123h-1.136l0.158,1.272l0.05,0.407v6.402l-1.136,2.236
		l0.698,0.783v13.094l-1.425,1.479l0.465,0.787v12.973l0.03-0.108l1.367-3.513v-0.047c-0.217-0.091-0.363-0.303-0.363-0.549
		c0-0.329,0.264-0.597,0.595-0.597c0.328,0,0.593,0.268,0.593,0.597c0,0.238-0.141,0.441-0.345,0.536l0.712,1.527V38.839
		c0-0.458,0.31-0.826,0.69-0.826c0.134,0,0.272,0.061,0.38,0.147c-0.189-0.151-0.303-0.394-0.303-0.684
		c0-0.458,0.312-0.831,0.692-0.831c0.262,0,0.486,0.177,0.605,0.441v-5.68l-0.041,0.013l-1.907,0.208v-0.64l1.938-0.212l0.011-0.03
		v-1.172l-1.948,0.225v-1.514l-1.484-1.133l3.952-0.437l1.077-2.357l-2.879,0.325v-3.422l3.255-0.506v3.578l0.614-0.035v-4.304
		l-3.869,0.64v-1.389L116.322,17.123z M109.514,38.073l-1.944-0.018v5.169l-0.02,0.009h1.213l-2.52,3.504l-0.013,0.017h4.855
		l-1.572-2.271V38.073z M112.92,26.29V22.95l1.191-0.602v-0.536l-1.685,0.856v3.897h0.016L112.92,26.29z M103.36,79.903
		l-1.066,1.709h1.101l0.646-1.012l0.388-0.576l0.013-15.664l-1.092,0.03L103.36,79.903z M105.83,44l-0.76,0.065l-1.685,3.24
		l1.367-0.013L105.83,44z M103.979,60.693l-0.99,2.344h1.347l0.673-2.262v-8.202h-1.021L103.979,60.693z M104.02,48.036v2.993
		l-0.554,0.904l1.465,0.008v-0.03l0.14-1.133v-2.699l-0.032-0.047L104.02,48.036z M111.06,65.75v-2.132l-4.542,0.017l0.013,15.145
		l-0.828,2.24h5.79l-0.397-1.271c1.083-1.506,2.295-2.076,2.295-2.076s0.231,0.095,0.579,0.342l0.028,0.038v-1.232l-0.009-0.021
		c-0.358-0.242-0.599-0.338-0.599-0.338s-1.312,0.58-2.334,2.012v-0.938c1.008-1.371,2.334-1.826,2.334-1.826
		s0.24,0.074,0.607,0.282V65.75H111.06z M114.015,75.997c-0.011-0.004-0.011-0.004-0.018-0.008v0.038L114.015,75.997z
		 M106.669,57.457h0.026v-0.004L106.669,57.457z"/>
	<polyline fill="#003366" points="102.2,85.908 92.065,85.908 92.065,20.402 110.05,20.402 110.05,21.7 93.356,21.7 93.356,84.61 
		102.216,84.61 102.2,85.908 	"/>
	<polyline fill="#003366" points="147.431,83.316 147.431,84.61 156.156,84.61 156.156,21.7 139.346,21.7 139.346,20.402 
		157.454,20.402 157.454,85.908 146.068,85.908 146.099,83.559 147.34,83.555 147.431,83.316 	"/>
	<path fill="#003366" d="M205.907,96.013h-14.712l-0.018,23.719c0,0.437,0.091,0.696,0.657,0.696h3.249v1.428h-13.483v-1.428h2.902
		c1.389,0,1.648-0.173,1.648-5.9V96.013h-0.822c-1.994,0-6.727,0.087-7.804,2.254c-0.26,0.52-0.441,0.822-0.826,0.822
		c-0.307,0-0.566-0.173-0.566-0.52c0-0.173,0.346-1.042,1.346-4.248h42.955c0.994,3.206,1.345,4.075,1.345,4.248
		c0,0.347-0.259,0.52-0.563,0.52c-0.389,0-0.566-0.303-0.83-0.822c-1.081-2.167-5.81-2.254-7.804-2.254h-0.822v18.515
		c0,5.728,0.264,5.9,1.648,5.9h2.907v1.428h-13.488v-1.428h3.249c0.57,0,0.657-0.26,0.657-0.696V96.013H205.907"/>
	<path fill="#003366" d="M22.518,114.009l8.456-19.688h7.374v1.428h-1.953c-0.563,0-0.651,0.264-0.651,0.696v18.082
		c0,5.728,0.262,5.9,1.648,5.9h1.953v1.428H28.112v-1.428h1.949c0.566,0,0.65-0.26,0.65-0.696V99.175h-0.084l-9.365,21.686
		c-0.089,0.217-0.221,0.739-0.523,0.739s-0.431-0.522-0.521-0.739l-9.495-20.902h-0.086v11.446c0,2.388,0,5.507,0.303,7.592
		c0.216,1.345,0.521,1.432,1.693,1.432h1.732v1.428H6.257v-1.428h1.211c1.131,0,1.348,0,1.348-0.566v-18.299
		c0-3.771-0.217-5.813-2.647-5.813H5v-1.428h8.279L22.518,114.009"/>
	<path fill="#003366" d="M53.654,99.871c-1.603,3.427-2.948,6.896-4.293,10.322h7.849L53.654,99.871 M48.669,111.88
		c-0.911,2.388-2.432,6.29-2.432,7.597c0,0.817,0.479,0.951,1.214,0.951h2.477v1.428h-8.806v-1.428h1.389
		c0.646,0,0.908-0.216,1.127-0.783c1.821-4.767,6.331-15.045,10.752-25.453c0.739-0.177,2.82-0.691,3.472-0.691
		c0.303,0,0.433,0.298,0.433,0.563c0,0.519-0.867,0.605-0.867,1.471c0,1.518,4.859,14.271,7.243,20.815
		c1.302,3.513,1.648,4.079,3.121,4.079h1.043v1.428H57.906v-1.428h1.949c0.826,0,0.954-0.173,0.653-1.042l-2.603-7.506H48.669z"/>
	<path fill="#003366" d="M78.19,107.892h1.562c3.469,0,6.59-1.514,6.59-5.42c0-5.113-4.334-6.459-5.68-6.459h-1.905
		c-0.435,0-0.566,0.13-0.566,0.563V107.892 M70.56,121.855v-1.428h1.951c0.564,0,0.65-0.26,0.65-0.696v-18.082
		c0-5.723-0.259-5.9-1.647-5.9h-1.953v-1.428h12.707c6.16,0,9.105,3.902,9.105,7.458c0,3.772-2.602,6.16-6.199,6.675
		c3.902,5.943,5.377,8.331,7.201,10.369c1.168,1.254,1.473,1.604,3.162,1.604v1.428h-4.942c-0.954,0-1.737,0-2.167-0.347
		c-1.26-1.042-4.469-6.155-7.547-12.186h-2.69v5.204c0,5.728,0.262,5.9,1.647,5.9h1.951v1.428H70.56z"/>
	<path fill="#003366" d="M134.761,95.749h-1.946c-0.567,0-0.649,0.264-0.649,0.696v14.574c0,3.421,0.26,9.668,7.319,9.668
		c1.955,0,8.332-0.433,8.332-9.153v-6.762c0-2.383,0-5.507-0.303-7.592c-0.221-1.341-0.52-1.432-1.696-1.432h-1.73v-1.428h8.106
		v1.428h-1.211c-1.133,0-1.346,0-1.346,0.566v15.353c0,7.977-5.813,11.014-11.32,11.014c-8.846,0-11.188-4.771-11.188-9.495v-11.537
		c0-5.723-0.26-5.9-1.644-5.9h-1.951v-1.428h11.228V95.749"/>
	<path fill="#003366" d="M154.746,120.428h1.946c0.566,0,0.657-0.26,0.657-0.696v-18.082c0-5.723-0.259-5.9-1.652-5.9h-1.95v-1.428
		h21.252c-0.476,4.118-0.519,4.421-0.951,4.421c-0.566,0-0.657-0.346-0.701-0.951c-0.043-0.74-2.336-1.778-7.284-1.778h-3.119
		c-0.437,0-0.566,0.13-0.566,0.563v9.5h4.036c4.598,0,4.771-0.523,4.771-1.778v-1.522h1.298v7.635h-1.298v-1.562
		c0-0.74-0.173-1.216-4.771-1.216h-4.036v3.167c0,9.235,0.173,9.369,1.647,9.369h1.519c2.345,0,8.245,0,9.586-2.388
		c0.173-0.303,0.26-0.563,0.649-0.563c0.303,0,0.476,0.217,0.476,0.52c0,0.39-0.217,1.042-1.125,4.118h-20.383V120.428"/>
	<path fill="#003366" d="M223.491,120.428h1.951c0.566,0,0.649-0.26,0.649-0.696v-18.082c0-5.723-0.265-5.9-1.648-5.9h-1.946v-1.428
		h21.243c-0.476,4.118-0.522,4.421-0.951,4.421c-0.566,0-0.648-0.346-0.696-0.951c-0.043-0.74-2.341-1.778-7.28-1.778h-3.128
		c-0.433,0-0.563,0.13-0.563,0.563v9.5h4.032c4.598,0,4.771-0.523,4.771-1.778v-1.522h1.302v7.635h-1.302v-1.562
		c0-0.74-0.174-1.216-4.771-1.216h-4.032v3.167c0,9.235,0.173,9.369,1.652,9.369h1.515c2.345,0,8.236,0,9.586-2.388
		c0.173-0.303,0.26-0.563,0.648-0.563c0.303,0,0.477,0.217,0.477,0.52c0,0.39-0.217,1.042-1.125,4.118h-20.384V120.428"/>
	<path fill="#003366" d="M62.663,130.845h-1.118c-0.325,0-0.372,0.151-0.372,0.397v8.349c0,1.96,0.146,5.542,4.198,5.542
		c1.12,0,4.775-0.251,4.775-5.243v-3.88c0-1.367,0-3.154-0.175-4.348c-0.126-0.771-0.299-0.817-0.972-0.817h-0.993v-0.822h4.648
		v0.822h-0.694c-0.648,0-0.772,0-0.772,0.324v8.794c0,4.577-3.33,6.316-6.486,6.316c-5.071,0-6.413-2.738-6.413-5.446v-6.61
		c0-3.283-0.149-3.378-0.947-3.378h-1.116v-0.822h6.438V130.845"/>
	<path fill="#003366" d="M88.07,141.282v-5.272c0-1.367,0-3.154-0.173-4.348c-0.123-0.771-0.301-0.817-0.969-0.817h-0.997v-0.822
		h4.652v0.822h-0.699c-0.645,0-0.768,0-0.768,0.324v14.587c0,0.173-0.075,0.294-0.253,0.294c-0.199,0-0.344-0.195-0.744-0.641
		L77.135,132.93v6.887c0,1.366,0,3.153,0.175,4.347c0.121,0.771,0.299,0.822,0.97,0.822h0.992v0.822h-4.647v-0.822h0.696
		c0.645,0,0.77,0,0.77-0.324v-11.308c0-1.389-0.547-2.509-1.514-2.509h-0.723v-0.822h4.302L88.07,141.282"/>
	<path fill="#003366" d="M96.837,141.607c0,3.274,0.149,3.378,0.942,3.378h1.123v0.822h-6.439v-0.822h1.118
		c0.325,0,0.375-0.147,0.375-0.397v-10.365c0-3.283-0.151-3.378-0.945-3.378H91.89v-0.822h6.439v0.822h-1.12
		c-0.32,0-0.372,0.151-0.372,0.397V141.607"/>
	<path fill="#003366" d="M115.5,130.845h-1.146c-0.146,0-0.171,0-0.421,0.622l-5.914,14.487c-0.125,0.272-0.198,0.42-0.374,0.42
		c-0.173,0-0.223-0.095-0.299-0.269l-5.195-12.307c-1.142-2.63-1.364-2.954-1.985-2.954h-0.798v-0.822h6.143v0.822h-1.045
		c-0.276,0-0.424,0-0.424,0.168c0,0.13,0.448,1.047,0.967,2.267l3.605,8.475l2.961-7.06c0.297-0.718,1.091-2.808,1.091-3.478
		c0-0.325-0.223-0.372-0.595-0.372h-1.317v-0.822h4.747V130.845"/>
	<path fill="#003366" d="M117.056,144.985h1.12c0.324,0,0.372-0.147,0.372-0.397v-10.365c0-3.283-0.147-3.378-0.945-3.378h-1.116
		v-0.822h12.175c-0.271,2.362-0.296,2.535-0.545,2.535c-0.324,0-0.374-0.199-0.4-0.545c-0.023-0.425-1.339-1.017-4.172-1.017h-1.788
		c-0.251,0-0.325,0.069-0.325,0.319v5.442h2.314c2.632,0,2.729-0.294,2.729-1.017v-0.869h0.746v4.369h-0.746v-0.892
		c0-0.424-0.098-0.701-2.729-0.701h-2.314v1.821c0,5.291,0.098,5.368,0.943,5.368h0.869c1.344,0,4.724,0,5.496-1.371
		c0.098-0.173,0.147-0.324,0.374-0.324c0.171,0,0.271,0.13,0.271,0.299c0,0.229-0.123,0.601-0.645,2.366h-11.684V144.985"/>
	<path fill="#003366" d="M135.142,137.805h0.891c1.99,0,3.781-0.874,3.781-3.11c0-2.933-2.487-3.698-3.258-3.698h-1.094
		c-0.251,0-0.32,0.069-0.32,0.319V137.805 M130.764,145.808v-0.822h1.12c0.325,0,0.372-0.147,0.372-0.397v-10.365
		c0-3.283-0.151-3.378-0.942-3.378h-1.121v-0.822h7.28c3.534,0,5.222,2.236,5.222,4.273c0,2.168-1.492,3.53-3.556,3.824
		c2.24,3.404,3.084,4.776,4.127,5.939c0.675,0.723,0.843,0.926,1.816,0.926v0.822h-2.833c-0.55,0-1,0-1.242-0.204
		c-0.727-0.592-2.561-3.525-4.33-6.985h-1.535v2.989c0,3.274,0.146,3.378,0.942,3.378h1.116v0.822H130.764z"/>
	<path fill="#003366" d="M145.809,134.123c0-3.036,3.132-4.572,5.918-4.572c1.012,0,2.085,0.1,3.054,0.472
		c0.026,0.645,0.13,1.64,0.13,2.037c0,0.299-0.182,0.351-0.354,0.351c-0.247,0-0.294-0.203-0.346-0.424
		c-0.226-1.068-1.938-1.419-2.834-1.419c-1.592,0-3.31,0.869-3.31,2.66c0,3.928,8.107,2.063,8.107,8.076
		c0,0.822-0.719,4.976-6.286,4.976c-1.371,0-2.785-0.251-4.079-0.719c-0.251-1.419-0.424-2.046-0.424-2.34
		c0-0.151,0-0.429,0.372-0.429c0.299,0,0.354,0.26,0.424,0.502c0.476,1.367,2.587,1.964,3.854,1.964
		c1.907,0,3.871-1.021,3.871-3.132C153.906,137.899,145.809,139.816,145.809,134.123"/>
	<path fill="#003366" d="M161.823,141.607c0,3.274,0.146,3.378,0.942,3.378h1.121v0.822h-6.441v-0.822h1.12
		c0.324,0,0.377-0.147,0.377-0.397v-10.365c0-3.283-0.147-3.378-0.943-3.378h-1.125v-0.822h6.445v0.822h-1.124
		c-0.32,0-0.372,0.151-0.372,0.397V141.607"/>
	<path fill="#003366" d="M175.341,145.808h-7.729v-0.822h1.868c0.32,0,0.372-0.147,0.372-0.397v-13.592h-0.472
		c-1.146,0-3.854,0.047-4.477,1.284c-0.147,0.299-0.251,0.472-0.472,0.472c-0.178,0-0.324-0.095-0.324-0.294
		c0-0.1,0.198-0.597,0.77-2.436h12.83c0.567,1.839,0.762,2.336,0.762,2.436c0,0.199-0.147,0.294-0.315,0.294
		c-0.229,0-0.325-0.173-0.472-0.472c-0.623-1.237-3.331-1.284-4.474-1.284h-0.476v10.611c0,3.274,0.147,3.378,0.943,3.378h1.665
		V145.808"/>
	<path fill="#003366" d="M188.236,141.607c0,3.274,0.147,3.378,0.943,3.378h1.12v0.822h-6.433v-0.822h1.111
		c0.325,0,0.377-0.147,0.377-0.397v-5.516l-3.283-5.939c-1.268-2.288-1.488-2.288-1.887-2.288h-0.895v-0.822h6.363v0.822h-1.32
		c-0.095,0-0.173,0.021-0.173,0.151c0,0.091,0.199,0.419,0.226,0.488l3.451,6.32c2.738-4.971,3.21-6.368,3.21-6.636
		c0-0.303-0.199-0.324-0.545-0.324h-1.298v-0.822h4.629v0.822h-0.623c-0.545,0-0.623,0.095-0.969,0.718l-4.006,7.354V141.607"/>
	<path fill="#003366" d="M118.085,109.717c0-11.19-6.196-14.66-10.188-14.66c-1.341,0-8.537,0.299-8.537,11.403
		c0,11.19,6.197,14.66,10.186,14.66C110.889,121.12,118.085,120.817,118.085,109.717 M94.332,108.805
		c0-8.635,5.935-15.313,14.824-15.313c8.451,0,13.955,5.468,13.955,13.881c0,8.635-5.937,15.313-14.822,15.313
		C99.839,122.686,94.332,117.218,94.332,108.805z"/>
	<path fill="#003366" d="M112.414,117.175c-0.733,0.783-3.082,1.51-4.51,1.475c3.214,3.703,7.348,8.626,10.859,8.674
		c2.168,0.025,5.421-1.259,7.371-2.211l-0.519-1.129c-0.869,0.39-1.604,0.735-2.559,0.735
		C120.152,124.719,116.737,121.596,112.414,117.175"/>
	<path fill="#003366" d="M123.907,78.939l-0.017,6.947h-4.763v-6.913c0.932-1.501,1.674-2.293,2.34-2.859
		C121.468,76.114,122.876,77.104,123.907,78.939z M127.085,75.228c-1.401-1.25-2.354-1.713-2.354-1.713s-0.992,0.523-2.34,1.726
		c1.389,1.246,2.366,2.804,2.366,2.804S125.86,76.387,127.085,75.228z M125.748,24.066l2.528,0.29v-3.694l-2.528-0.433V24.066z
		 M154.426,82.85l-6.999,0.004l0.026,3.024l-1.488,0.013v-2.332h-2.76v-1.146h-4.421v3.478h-5.209v-5.775
		c1.177-1.898,2.501-2.443,2.501-2.443s0.363,0.151,0.865,0.558v-1.232l-0.018-0.022c-0.498-0.367-0.848-0.515-0.848-0.515
		s-1.389,0.567-2.501,2.35l-0.086-1.017c1.111-1.778,2.5-2.172,2.5-2.172s0.39,0.108,0.926,0.48l0.026,0.061V65.806h-3.254v-1.687
		l-3.227-0.008v21.78l-4.86-0.004v-6.913c0.928-1.332,1.655-2.258,2.412-2.859c0,0,0.298,0.294,0.727,0.753v-1.605
		c-2.029-2.241-4.012-3.071-4.012-3.071s-3.08,1.25-5.557,5.091l-0.085-1.484c2.471-3.841,5.557-4.715,5.557-4.715
		s1.985,0.562,4.049,2.772l0.009,0.013v-1.272c-0.629-0.683-1.763-1.527-1.763-1.527v-5.351h-7.821v-1.631h-3.17v-0.035l-0.08,0.035
		h0.08v21.798h-5.063v-3.436h-4.566v3.436h-4.081l-0.026-3.854h-0.032v0.821l-7.075-0.004V23.288h14.955v0.796h0.021v3.184
		l-0.801,2.185l0.435,0.796v3.201l0.792,3.634l0.03-0.03v-6.904l-0.552-0.584l1.015-2.271l-0.011-3.209h0.011v-5.364h1.252v-5.308
		l-0.218-0.177l0.184-1.164h-0.228v-0.528h0.31l0.195-1.242h-0.249V9.882h0.313l0.194-1.25h-0.214V8.32h0.264l0.176-1.125
		l0.177,1.125h0.262v0.312h-0.214l0.194,1.25h0.316v0.419h-0.247l0.195,1.242h0.309v0.528h-0.227l0.182,1.164l-0.221,0.177v7.06
		l0.64-0.441v-1.017l0.496-2.388h1.191v-4.447l-0.274-0.225l0.182-1.16h-0.228v-0.532h0.308l0.196-1.242h-0.248V8.602h0.313
		l0.196-1.25h-0.214V7.04h0.262l0.18-1.125l0.171,1.125h0.266v0.311h-0.214l0.196,1.25h0.314v0.419h-0.249l0.192,1.242h0.312v0.532
		h-0.228l0.18,1.16l-0.16,0.129v7.142l0.779-0.125l0.41-1.336l0.128-0.416l0.71,1.553l1.304-0.212l0.324-0.956l0.253-0.735
		l0.649,1.471l0.009,0.021l0.815-0.13v-0.64l0.99-1.959l0,0l0.03-4.534l-0.171-0.138l0.197-1.242h-0.247V9.281h0.333l0.208-1.333
		h-0.264V7.502h0.335l0.21-1.341h-0.228V5.829h0.281l0.187-1.203l0.188,1.203h0.284v0.333h-0.231l0.212,1.341h0.339v0.446h-0.271
		l0.208,1.333h0.331v0.566h-0.242l0.192,1.242l-0.169,0.138l-0.061,4.292l1.152,2.185v0.666l0.736,0.117l0.705-1.488l0.499,1.683
		l1.358,0.216l0,0l0.731-1.549l0.523,1.743l0,0v0.004l0.636,0.1l0.125-0.216v-6.852l-0.225-0.173l0.182-1.16h-0.225v-0.532h0.312
		l0.194-1.242h-0.251V8.602h0.315l0.195-1.25h-0.217V7.04h0.264l0.178-1.125l0.178,1.125h0.259v0.311h-0.216l0.199,1.25h0.312v0.419
		h-0.242l0.19,1.242h0.311v0.532h-0.225l0.182,1.16l-0.221,0.173v4.265h1.424l-0.753,2.449v6.272l1.367,2.388l-0.788,0.666v13.15
		l1.367,1.454l-0.463,0.813v14.453h1.683V43.584l0.528-0.787l-1.428-1.25V29.011l0.899-0.788l-1.859-2.876v-3.171l1.427,0.813v3.231
		l0.493,0.437v-3.979l-1.92-1.107v-1.54l0.22,0.255l0.126,0.078v-6.952l-0.217-0.177l0.182-1.164h-0.225v-0.528h0.312l0.19-1.242
		h-0.242V9.882h0.312l0.199-1.25h-0.217V8.32h0.264l0.169-1.125l0.182,1.125h0.264v0.312h-0.216l0.194,1.25h0.316v0.419h-0.251
		l0.194,1.242h0.312v0.528h-0.225l0.182,1.164l-0.226,0.177v5.269l1.315,0.004v8.755l1.072,1.951l-0.636,0.697v6.194l0.021,0.052
		l0.554-3.019v-2.691l0.801-1.233l-1.025-2.033v-3.24h0.035v-0.004v-0.826h15.088V82.85z M131.759,52.885l-1.852,4.572h4.188
		l-1.86-4.572c0.208-0.091,0.363-0.303,0.363-0.545c0-0.329-0.268-0.597-0.597-0.597s-0.597,0.268-0.597,0.597
		C131.404,52.582,131.551,52.794,131.759,52.885z M112.427,26.566h0.016l0.478-0.277V22.95l1.191-0.602v-0.536l-1.685,0.856V26.566z
		 M111.726,62.289l-0.391,0.904h1.613l0.785-2.682v-1.626h-3.085v-1.428h-3.953v-0.004l-0.028,0.004h0.028v2.241l-0.874,2.591
		H111.726z M110.648,56.787V52.4l-3.953,0.03v4.317L110.648,56.787z M112.139,42.533l0.692-0.489V28.894l-0.618,0.398
		L112.139,42.533z M106.427,35.473l0.013,0.723l0.265,0.021l-0.242,1.168h1.912v-8.262l0.3-0.03v-0.705h-0.744v0.705l0.245-0.004
		l-0.299,1.596l-0.625-0.004v0.762h0.465l-0.315,1.6l-0.515-0.017l0.002,0.805l0.264,0.021l-0.296,1.622H106.427z M106.228,46.755
		h4.858l-1.572-2.271v-6.411l-1.947-0.018v5.169l-0.02,0.009h1.212l-2.518,3.504L106.228,46.755z M106.204,51.457h2.738l2.258,0.009
		l-0.666-1.077v-2.47l-3.636-0.017v2.401L106.204,51.457z M103.384,47.304l1.369-0.013L105.83,44l-0.762,0.065L103.384,47.304z
		 M104.441,64.361l-1.092,0.03l0.011,15.512l-1.066,1.709h1.101l0.646-1.012l0.388-0.576L104.441,64.361z M105.006,52.573h-1.019
		l-0.009,8.12l-0.993,2.344h1.35l0.671-2.262V52.573z M105.068,48.079l-0.03-0.047l-1.021,0.004v2.993l-0.554,0.904l1.467,0.008
		v-0.03l0.138-1.133V48.079z M114.01,75.997c-0.006-0.004-0.009-0.004-0.015-0.008V65.75h-2.938v-2.132l-4.542,0.017l0.013,15.145
		l-0.828,2.24h5.792l-0.399-1.271c1.085-1.506,2.294-2.076,2.294-2.076s0.231,0.095,0.582,0.342l0.026,0.038v-1.232l-0.007-0.021
		c-0.361-0.242-0.602-0.338-0.602-0.338s-1.311,0.58-2.331,2.012v-0.938c1.006-1.371,2.331-1.826,2.331-1.826
		s0.243,0.074,0.608,0.282v0.038L114.01,75.997z M114.027,56.449l1.365-3.513v-0.047c-0.215-0.091-0.364-0.303-0.364-0.549
		c0-0.329,0.265-0.597,0.596-0.597c0.328,0,0.595,0.268,0.595,0.597c0,0.238-0.141,0.441-0.345,0.536l-0.004-0.013l-0.013,0.026
		c0.006-0.004,0.013-0.009,0.017-0.013l0.71,1.527V38.839c0-0.458,0.31-0.826,0.688-0.826c0.139,0,0.275,0.061,0.383,0.147
		c-0.188-0.151-0.301-0.394-0.301-0.684c0-0.458,0.312-0.831,0.692-0.831c0.262,0,0.486,0.177,0.602,0.441v-5.68l-0.037,0.013
		l-1.907,0.208v-0.64l1.936-0.212l0.009-0.03v-1.172l-1.944,0.225v-1.514l-1.486-1.133l3.954-0.437l1.077-2.357l-2.879,0.325v-3.422
		l3.255-0.506v3.578l0.612-0.035v-4.304l-3.867,0.64v-1.362l-1.047-2.146h-1.136l0.158,1.272l0.048,0.407v6.402l-1.136,2.236
		l0.698,0.783v13.094l-1.425,1.479l0.465,0.787v12.973L114.027,56.449z M117.278,52.885l-1.597,4.572h3.552l0.132,0.026
		l-1.609-4.594c0.204-0.095,0.355-0.312,0.355-0.549c0-0.329-0.267-0.597-0.598-0.597c-0.328,0-0.597,0.268-0.597,0.597
		C116.917,52.582,117.072,52.794,117.278,52.885z M128.419,29.309l-2.439-0.277v-2.016l-2.299,0.026v26.171l-0.438,0.013v4.875
		h-2.937V27.7l-0.728,0.121v29.563l-0.027,0.074l-0.496,1.021h-2.762v-0.035l-0.061,0.035h0.061v1.769l-1.038,2.479v0.026h4.354
		l-0.233,0.376h7.04l0.87-2.267h-8.318l-0.174-0.813h9.247V57.98l-0.028,0.056h-1.627v-4.797h-0.406l-0.004-14.911
		c0-0.458,0.309-0.796,0.685-0.796c0.139,0,0.277,0.065,0.379,0.143c-0.182-0.147-0.294-0.39-0.294-0.679
		c0-0.463,0.305-0.831,0.688-0.831c0.379,0,0.688,0.376,0.688,0.839c0,0.29-0.113,0.532-0.301,0.683
		c0.107-0.086,0.246-0.143,0.383-0.143c0.069,0,0.146,0.017,0.212,0.043l0.004-6.416l-0.018,0.009l-2.422-0.307v-0.614l2.427,0.312
		l0.013-0.125V29.309z M133.861,27.15l-2.038-2.388l-2.76-0.29v-3.69l2.323,0.359v-0.623l-5.615-0.874v-1.787l-1.044-2.132
		l-1.047,2.146v8.284l-0.024,0.064h2.176L133.861,27.15z M129.412,54.649l0.928-2.111l-0.026,0.026V38.899
		c0-0.463,0.308-0.844,0.692-0.844c0.134,0,0.269,0.065,0.376,0.143c-0.186-0.147-0.298-0.39-0.298-0.679
		c0-0.463,0.307-0.831,0.692-0.831c0.061,0,0.112,0.008,0.164,0.026v-5.144l-0.009,0.039l-1.821-0.212v-0.64l1.83,0.212V31
		l0.034-0.026l-0.034-0.004v-1.268l-1.83-0.203v-1.709l-0.688-0.035l-0.039-0.013L129.412,54.649z M136.016,58.885h-2.678v-0.493
		h-2.505l0.004,0.03v1.946l-0.981,2.293l-0.035,0.021h4.447l-0.294,0.563h1.107l0.935-2.587V58.885z M140.903,28.232l0.026,0.735
		l0.233-0.009v8.371h1.955l-0.294-1.198l0.424-0.013v-0.705l-0.523-0.008l-0.394-1.705l0.406,0.017v-0.701l-0.515-0.004
		l-0.351-1.631l0.354,0.013v-0.705l-0.437,0.021l-0.333-1.752l0.285,0.018l-0.021-0.744H140.903z M138.368,46.638h4.889
		l-0.351,0.874h3.785l-1.636-3.141h-2.785v-6.03l-2.072,0.004v5.005h0.705L138.368,46.638z M138.195,51.522h5.382l-0.614,0.788
		h3.378l-0.64-1.484v-1.886h-3.171v-1.107h-3.578v2.444L138.195,51.522z M138.018,62.401h5.905l-0.55,0.991h3.374l-1.046-2.734
		v-6.865h-2.852v-1.28h-3.897v4.451h3.897v0.64h-3.897v2.241L138.018,62.401z M147.21,81.92l-0.899-1.835V64.993h-3.227v-1.25
		h-4.339v15.092l-0.87,2.124h6.394l-0.605,0.961H147.21z"/>
</g>
</svg>