<svg xmlns="http://www.w3.org/2000/svg" x="0px" y="0px" width="246.16px" height="300.1px">
<path fill="#A10A04" d="M0.46,232.87H245.7V0.55H0.46V232.87z"/>
<path d="M0.46,299.55H245.7v-49.39H0.46V299.55z"/>
<path fill="#FFFFFF" d="M148.95,115.84c-0.53,0-0.26-0.66-0.11-1.04c1.29-1.97,3.96-2.43,6.3-2.12c2.63,0.69,4.4,1.5,6.53,2.63
	l1.05,0.52C158.46,115.96,153.32,115.99,148.95,115.84z M111.95,67.85l-0.38,23.89c-0.15,5.08-0.08,10.32-1.67,14.79
	c-1.82,4.18-5.61,7.21-10.33,7.44l-1.29-0.03v2.15c-5.32-1.22-10.55-2.65-16.18-2.95c-0.38-0.23-0.99-0.08-0.99-0.69l0.46-1.66
	c2.12-5.39,3.95-10.92,6.38-16.16c4.93-12.9,10.25-25.71,15.11-38.53c2.81-6.52,5.01-13.05,8.58-19.12l0.3,0.53
	C112.17,47.44,111.79,57.84,111.95,67.85L111.95,67.85z M105.87,131.72c2.04,2.58,3.57,5.61,5.08,8.42
	c1.74,4.18,3.27,8.57,4.11,13.13c0.99,6.15,1.06,13.2,0,19.27c-1.82,11.22-6.84,20.93-15.41,28.37c-0.08,0.07-0.08,0.23-0.08,0.38
	l-0.3-0.07c-7.66,6.37-18.68,9.63-28.76,6.14c-6.15-1.74-10.86-5.54-15.11-10.01c-10.1-10.4-13.66-25.34-12.45-40.81
	c1.82-16.3,10.93-32.08,26.8-37.46C83.63,114.28,97.82,121.11,105.87,131.72z M47.03,110.1c-1.89-1.59-3.41-4.03-4.18-6.52
	c-0.68-2.58-0.45-5.31-0.68-8.04l-0.61-22.91c0-0.53,0-1.37-0.07-2.04l-0.24-18.36v-4.55l0.08-0.15l-0.15-0.23l0.15-10.47l0.3-1.22
	c1.59,2.43,2.73,5.38,3.88,8.04c2.81,6.83,5.69,13.58,8.42,20.48l8.28,20.47l10.17,24.51c0.38,1.21,1.07,2.35,1.07,3.64
	c-1.75,0.99-4.11,0.76-6.07,1.45c-2.74,0.45-5.39,1.14-7.89,2.12v-2.58C54.78,113.82,50.52,112.68,47.03,110.1L47.03,110.1z
	 M219.44,191.12c-1.44,5.07-5.31,9.33-9.64,12.21c-8.5,5.38-20.2,3.87-30.29,3.94c-5.47-0.23-10.71-3.1-13.37-7.73
	c-1.66-2.81-1.97-6.22-1.75-9.79c-0.23-8.72-0.46-17.37,0.08-26.09c0.3-0.6,1.14-0.6,1.74-0.68h25.36c2.73,0.08,5.46,0.38,7.81,1.36
	c5.08,2.58,8.27,7.7,7.82,13.7h3.42v-34.94h-3.66c-0.08,1.74-0.07,3.57-0.52,5.23c-0.84,3.95-4.41,8.04-8.42,9.1l-2.43,0.68
	c-10.07,0.53-20.42,0.45-30.44,0c-0.91-0.84-0.99-1.66-0.99-2.5l-0.15-24.81l0.15-8.8c0.08-0.46,0.31-0.84,0.76-0.99l8.8-0.23
	l23.84,0.08c6.22,0.07,12.45,1.37,16.77,5.61c4.86,4.48,6.38,11.3,5.85,18.51h3.38v-29.15l-19.39,0.01
	c6.05-2.33,11.44-6.12,15.39-10.67c6.08-6.91,7.44-19.27,2.96-27.39c-4.49-9.41-14.81-12.75-24.22-15.1c-0.23,0-0.38-0.38-0.69-0.15
	c-4.48-1.29-9.03-2.2-13.58-3.41c-0.23-0.31-0.91-0.31-1.29-0.46c-1.82-0.23-3.42-0.84-5.16-1.29c-5.85-2.27-13.06-2.73-17.07-8.19
	c-2.43-3.71-2.13-9.33,0.3-12.97c6.08-8.5,16.77-10.85,27.41-10.47c7.89,0.3,14.8,3.87,20.27,8.88c5.01,5.46,9.64,11.3,9.03,19.72
	h3.65V21.2h-2.89c-0.23,0.99-0.46,1.97-0.98,2.88c-1.59,1.82-3.95,2.96-6.53,2.28c-3.41-0.99-6.61-2.2-10.1-3.11
	c-6.31-1.74-12.99-2.58-19.89-2.5c-9.57,0.76-18.98,2.73-26.42,7.66c-5.01,2.96-8.66,7.81-10.86,12.9
	c-1.89,5.23-1.81,12.29,0.39,17.22c2.81,7.58,9.19,12.6,15.87,15.02c9.19,2.96,18.45,5.46,27.94,7.65
	c7.51,1.97,17.23,3.34,19.81,12.06c1.52,5.92-1.22,11.15-5.46,15.02c-8.96,7.51-24.22,8.8-35.07,3.95
	c-11.3-4.69-19.24-16.24-18.93-29.05l-4.04,0.04l0.04,30.29c0,0.69,0,1.59-0.46,2.12c-2.96,0.53-5.7-1.14-7.89-2.58
	c-4.18-2.58-5.09-7.21-5.39-11.76c-0.68-8.18-0.38-16.76-0.61-24.96V43.51c0.15-3.49,0.15-7.28,1.59-10.47
	c2.12-4.62,6.99-7.36,12.3-7.5v-3.19h-31.73c-0.38,0.46-0.38,1.14-0.76,1.51c-1.97,5.31-4.03,10.84-6.07,16.24l-8.11,20.94
	c-3.51,8.79-7,17.6-10.94,26.24c-0.53,0.91-0.84,2.04-1.67,2.58c-2.12-3.33-3.49-7.06-5.01-10.84l-7.81-18.89
	c-4.86-12.67-9.95-25.03-14.81-37.77H22.59l-0.03,3.19c4.93,0.08,9.6,1.14,12.19,5.23c2.04,3.03,1.44,7.29,1.81,10.99l0.69,22.16
	c0.3,12.67,0.3,25.41-0.54,38c-0.61,4.33-3.57,8.27-7.59,10.17c-2.05,0.92-3.96,1.77-6.53,1.63v3.83h33.18
	c-3.25,1.59-6.41,3.34-9.49,5.23c-13.06,8.8-21.41,22.76-22.62,38.76c-0.45,5.77,0.99,11,2.43,16.09
	c3.8,12.14,13.13,21.62,23.84,27.84c10.47,6.45,23.76,8.11,36.89,7.06c8.81-1.07,16.93-4.11,24.3-8.34
	c14.12-8.72,22.93-23.44,23.3-40.5c-0.07-4.7-0.91-9.03-1.97-13.27c-3.26-11.53-11.24-21.25-21.33-27.32l-8.35-5l30.37-0.15
	c3.95-0.08,7.37,2.12,9.64,4.84c3.88,4.78,2.89,12.14,3.35,18.28l0.22,22.46c-0.15,8.64-0.31,17.44-0.38,26.16
	c-0.07,4.55-0.68,9.1-3.49,12.29c-3.88,4.85-9.95,6.37-16.25,5.92v3.95h98.4l-0.09-34.51h-3.27
	C221.18,182.09,220.8,186.8,219.44,191.12L219.44,191.12z M32.43,286.89c-1.77,1.68-4.23,2.53-7.37,2.53
	c-3.18,0-5.64-0.84-7.39-2.51c-1.74-1.67-2.61-4.26-2.61-7.74v-15.93h5.16v15.93c0,0.69,0.05,1.38,0.17,2.04
	c0.11,0.67,0.34,1.27,0.69,1.77c0.35,0.52,0.84,0.93,1.47,1.26c0.63,0.33,1.47,0.49,2.51,0.49c1.84,0,3.11-0.45,3.82-1.35
	c0.7-0.9,1.06-2.3,1.06-4.22v-15.93h5.16v15.93C35.09,282.64,34.21,285.21,32.43,286.89 M47.12,263.24l9.8,17.18h0.07v-17.18h4.83
	v25.6h-5.16l-9.77-17.14h-0.07v17.14h-4.83v-25.6H47.12 M68.82,288.86h5.16v-25.6h-5.16V288.86z M86.08,288.86l-7.59-25.6h5.29
	l5.22,18h0.07l5.29-18.01h5.33l-7.79,25.6L86.08,288.86 M121.72,263.24v4.73h-12.4v5.49h11.37v4.38h-11.37v6.28h12.66v4.73h-17.82
	v-25.6L121.72,263.24 M138.76,274.82c1.19,0,2.07-0.29,2.66-0.86c0.59-0.58,0.89-1.5,0.89-2.8c0-1.25-0.3-2.14-0.89-2.71
	c-0.59-0.56-1.49-0.85-2.66-0.85h-5.66v7.21L138.76,274.82L138.76,274.82z M140.59,263.24c1.06,0,2,0.19,2.84,0.56
	c1.65,0.72,2.93,2.07,3.55,3.77c0.32,0.85,0.48,1.76,0.48,2.74c0,1.5-0.29,2.81-0.87,3.91c-0.58,1.11-1.52,1.94-2.84,2.51v0.07
	c0.64,0.19,1.17,0.49,1.57,0.88c0.42,0.39,0.76,0.86,1.02,1.4s0.46,1.13,0.58,1.77c0.12,0.65,0.2,1.3,0.25,1.94
	c0.02,0.41,0.05,0.89,0.07,1.44c0.02,0.55,0.06,1.11,0.12,1.68c0.05,0.58,0.14,1.12,0.26,1.63s0.3,0.95,0.54,1.32h-5.16
	c-0.29-0.82-0.46-1.78-0.53-2.9c-0.06-1.08-0.16-2.15-0.3-3.23c-0.18-1.34-0.55-2.31-1.12-2.94c-0.57-0.62-1.49-0.93-2.79-0.93
	h-5.16v10.01h-5.16v-25.6L140.59,263.24L140.59,263.24z M158.08,282.54c0.28,0.6,0.66,1.09,1.14,1.46c0.47,0.37,1.03,0.65,1.66,0.83
	c0.64,0.18,1.3,0.27,1.97,0.27c0.46,0,0.96-0.04,1.49-0.13c0.53-0.08,1.02-0.25,1.48-0.49s0.85-0.57,1.16-0.99
	c0.31-0.42,0.46-0.95,0.46-1.59c0-0.7-0.2-1.26-0.61-1.68c-0.45-0.46-1-0.83-1.59-1.08c-0.73-0.31-1.48-0.56-2.23-0.76
	c-0.85-0.22-1.69-0.46-2.53-0.72c-0.88-0.24-1.73-0.53-2.56-0.88c-0.81-0.33-1.56-0.79-2.23-1.35c-0.67-0.57-1.22-1.27-1.59-2.06
	c-0.4-0.83-0.61-1.82-0.61-3c0-1.32,0.26-2.45,0.78-3.42c0.5-0.94,1.19-1.76,2.02-2.42c0.85-0.65,1.8-1.14,2.83-1.44
	c1.06-0.31,2.1-0.47,3.16-0.47c1.23,0,2.4,0.15,3.54,0.45c1.13,0.3,2.13,0.79,3.01,1.46c0.88,0.67,1.57,1.52,2.08,2.56
	c0.52,1.04,0.78,2.3,0.78,3.79h-5c-0.04-0.77-0.19-1.41-0.44-1.9c-0.23-0.47-0.58-0.88-1.01-1.19c-0.43-0.3-0.92-0.5-1.44-0.61
	c-0.58-0.12-1.17-0.19-1.75-0.18c-0.42,0-0.84,0.05-1.25,0.14c-0.42,0.1-0.8,0.26-1.14,0.5c-0.34,0.24-0.63,0.54-0.84,0.9
	c-0.22,0.36-0.33,0.82-0.33,1.37c0,0.5,0.09,0.91,0.26,1.22c0.18,0.31,0.52,0.6,1.04,0.87c0.52,0.26,1.23,0.53,2.14,0.79
	c0.91,0.26,2.1,0.6,3.57,1.01c0.44,0.1,1.05,0.27,1.82,0.52c0.78,0.25,1.54,0.65,2.31,1.21c0.77,0.55,1.44,1.29,1.99,2.2
	c0.56,0.93,0.84,2.1,0.84,3.53c0,1.18-0.21,2.26-0.63,3.27c-0.41,1-1.05,1.88-1.85,2.6c-0.83,0.73-1.84,1.3-3.06,1.7
	c-1.22,0.41-2.62,0.61-4.23,0.61c-1.28,0-2.54-0.17-3.77-0.52c-1.18-0.32-2.26-0.88-3.22-1.63c-0.95-0.76-1.7-1.73-2.22-2.83
	c-0.55-1.15-0.81-2.51-0.79-4.09h5C157.65,281.21,157.8,281.94,158.08,282.54 M177.95,288.86h5.16v-25.6h-5.16V288.86z
	 M188.27,267.98v-4.73h19.24v4.73h-7.04v20.88h-5.16v-20.88H188.27 M210.13,263.24h5.79l5.49,10.12l5.45-10.12h5.75l-8.71,15.78
	v9.83h-5.16v-9.97L210.13,263.24"/>
</svg>
