<?xml version="1.0" encoding="utf-8"?>
<!-- Generator: Adobe Illustrator 21.0.2, SVG Export Plug-In . SVG Version: 6.00 Build 0)  -->
<svg version="1.1" id="Layer_1" xmlns="http://www.w3.org/2000/svg" xmlns:xlink="http://www.w3.org/1999/xlink" x="0px" y="0px"
	 viewBox="0 0 476 124" style="enable-background:new 0 0 476 124;" xml:space="preserve">
<style type="text/css">
	.st0{fill:#5B2B82;}
	.st1{fill:#010101;}
</style>
<g>
	<g>
		<path class="st0" d="M18,42.3c0.1-7.9-1-15.5,5.8-19.9c1.4-0.9,4-1.9,5.8-1.9l48.9-0.1c-2.9,1.1-3.9,1.9-3.9,1.9
			c-1.7,1.2-3.1,3.5-3.8,5.3c-0.2,0.5-0.9,3.8,0,3.9c0.4,0,0.5-0.2,0.8-0.3c1.7-1.6,2.2-3.5,4.6-4.5c6.7-2.8,11.2,6.3,12.1,11.2
			c0.9,4.6,0.7,9.8,0.1,14.5C87.1,62.8,77,97.3,65.5,99c-1.8,0.3-3.4-0.8-4.3-2.1c-2.8-3.9-2.3-10.4-1.6-15.2c0.5-2.3,1-4.5,1.5-6.8
			c1-3.2,5.3-15.1,0.4-17c-1.6-0.6-3,0.4-3.8,1.6c-1.5,2.6-3,5.2-4.5,7.8c-3.6,5.6-7.6,10.8-11.8,16c-2.4,2.9-4.8,6-7.6,8.6
			c-0.9,0.8-2.8,2.9-4.1,2.3c-0.8-0.4-0.7-1.7-0.6-2.5c0.5-4.9,2.7-9.7,4.5-14C37.5,68.3,42,59.2,46.1,50c2-4.5,5.1-8.5,4.2-14
			c-0.4-2.5-1.5-5-4-5.9c-1.9-0.6-4.2,0.1-5.9,0.6c-1.9,0.6-4.9,1.7-6.9,2.7c-5.5,2.8-9.5,4.9-14.6,8.2L18,42.3z"/>
		<path class="st0" d="M18.3,90.9c0.7-2.1,1-2.8,1-2.8c1.3-2.9,2.6-5.7,3.9-8.6c3.3-7,6.3-14.3,9.8-21.2c1.4-2.9,2.9-5.9,4.3-8.8
			c1.4-3,3-5.9,3.8-9.2c0.5-2,0.5-3.8-1.8-4.2c-4.1-0.3-11.8,5.7-17.3,9.4c-0.2,0.2-2.8,2-3.8,2.9L18.3,90.9z"/>
		<path class="st0" d="M101.4,81.8c0,4.3,0.3,9.2-1,12.8c-1.6,4.5-5.6,8-10.4,8.7c-1.9,0.3-4.1,0.3-6.1,0.3c-3.7,0-51.3,0-53.4,0
			c-0.2,0-0.8,0-0.5-0.2c0,0,6.7-6.8,8.2-8.6c5.8-6.8,10-13.7,14.6-21.2c0.2-0.3,3.2-5.2,3.2-5.2s0.4-0.6,0.3,0.1
			c-0.7,3.3-1.4,6.6-2.1,9.9c-1.7,11.9,0.3,23.8,14.3,23.8c1.7-0.1,2.4-0.3,3-0.5c6.1-1.9,10.2-7.2,12.9-10.8
			C95,77.1,99.2,58.8,101.5,40.8L101.4,81.8z"/>
	</g>
</g>
<g>
	<path class="st1" d="M151.7,22.9h-1.5c-0.4,0-0.5,0.2-0.5,0.5v10.9c0,2.6,0.2,7.3,5.5,7.3c1.5,0,6.2-0.3,6.2-6.9v-5.1
		c0-1.8,0-4.1-0.2-5.7c-0.2-1-0.4-1.1-1.3-1.1h-1.3v-1.1h6.1v1.1h-0.9c-0.8,0-1,0-1,0.4v11.5c0,6-4.4,8.3-8.5,8.3
		c-6.6,0-8.4-3.6-8.4-7.1v-8.7c0-4.3-0.2-4.4-1.2-4.4h-1.5v-1.1h8.4L151.7,22.9L151.7,22.9z"/>
	<path class="st1" d="M171.4,30.5c1.8-1.3,3.4-2.3,5.1-2.3c2.6,0,3.9,1.5,3.9,4.5v4.4c0,3.8,0.1,4.5,1,4.5h1.2v1h-7.2v-1h0.9
		c0.4,0,0.6,0,0.6-0.5v-6.8c0-2.2,0-4.1-2.4-4.1c-1.1,0-2.3,0.6-3.2,1.5V37c0,3.8,0.1,4.5,1,4.5h1.1v1H166v-1h1.2
		c0.4,0,0.6,0,0.6-0.5v-6.6c0-3.3,0-4.7-1.1-4.7h-1.4v-1c2-0.2,3.9-0.3,5.9-0.6v2.4H171.4z"/>
	<path class="st1" d="M189.1,37c0,3.8,0.1,4.5,1,4.5h1.4v1h-7.6v-1h1.2c0.4,0,0.6,0,0.6-0.5v-6.6c0-3.3,0-4.7-1.1-4.7h-1.4v-1
		c2-0.2,3.9-0.3,5.9-0.6V37z M185.3,23.6c0-1,0.8-1.8,1.8-1.8s1.8,0.7,1.8,1.8c0,1-0.8,1.8-1.8,1.8
		C186.1,25.3,185.3,24.6,185.3,23.6z"/>
	<path class="st1" d="M206.8,29.6h-0.7c-0.5,0-0.8,0.1-1,0.6l-5.6,12.4c-0.1,0.2-0.2,0.4-0.5,0.4s-0.4-0.2-0.5-0.5l-3.9-9.1
		c-1.2-2.7-1.8-3.8-2.6-3.8h-0.8v-1h7.3v1h-1.3c-0.4,0-0.5,0-0.5,0.3s0.6,1.5,0.7,1.9l2.8,6.5c0.7-1.5,3.1-6.5,3.1-8
		c0-0.6-0.3-0.7-0.9-0.7h-1.2v-1h5.5v1H206.8z"/>
	<path class="st1" d="M220.6,40.6c-1.7,1.6-4,2.5-6.3,2.5c-4.3,0-6.6-3.2-6.6-7.2c0-4.1,2.4-7.7,6.8-7.7c3.1,0,4.8,2.1,6,4.7
		l-9.2,2.4c0.2,3.1,1.3,6.1,4.8,6.1c1.6,0,2.8-0.6,4-1.5L220.6,40.6z M211.4,34.2l5.4-1.5c-0.5-1.3-1.4-3.5-3-3.5
		c-2.1,0-2.7,3.5-2.6,5H211.4z"/>
	<path class="st1" d="M226.8,31.1c1.6-1.7,2.6-2.9,4.2-2.9c0.6,0,1.2,0.3,1.6,0.7l-0.4,2.1c-0.1,0.6-0.2,0.8-0.5,0.8
		c-0.7,0-0.2-1.1-1.9-1.1c-1.2,0-2.2,0.7-3,1.6v4.8c0,3.8,0.1,4.5,1,4.5h1.7v1h-7.9v-1h1.2c0.4,0,0.6,0,0.6-0.5v-6.6
		c0-3.3,0-4.7-1.1-4.7h-1.4v-1c2-0.2,3.9-0.3,5.9-0.6L226.8,31.1L226.8,31.1z"/>
	<path class="st1" d="M243.9,31.2c0,0.2-0.2,0.4-0.4,0.4c-0.3,0-0.4-0.2-0.5-0.5c-0.6-1.3-2.3-1.7-3.5-1.7s-3,0.6-3,2
		c0,3.1,8.4,1.4,8.4,6.6c0,3.7-4,5-7,5c-1.4,0-2.8-0.2-4.1-0.7l-0.5-2.5c-0.1-0.4,0.1-0.7,0.5-0.7s0.5,0.3,0.6,0.7
		c0.4,1.4,2.4,2,3.8,2c1.5,0,3.7-0.6,3.7-2.5c0-3.2-8.4-1.4-8.4-6.6c0-2.4,2.4-4.6,6.2-4.6c1.3,0,2.7,0.2,3.9,0.7L243.9,31.2z"/>
	<path class="st1" d="M252,37c0,3.8,0.1,4.5,1,4.5h1.4v1h-7.6v-1h1.2c0.4,0,0.6,0,0.6-0.5v-6.6c0-3.3,0-4.7-1.1-4.7h-1.4v-1
		c2-0.2,3.9-0.3,5.9-0.6V37z M248.3,23.6c0-1,0.8-1.8,1.8-1.8s1.8,0.7,1.8,1.8c0,1-0.8,1.8-1.8,1.8
		C249.1,25.3,248.3,24.6,248.3,23.6z"/>
	<path class="st1" d="M265,41.8c-1.2,0.7-2.9,1.2-4.3,1.2c-2.7,0-3.5-1.2-3.5-3.7v-9.7h-1.1c-0.3,0-0.6,0-0.6-0.4
		c0-0.3,0.6-0.7,4.5-4.1h0.7v3.5h3.3c-0.1,1-0.2,1-0.7,1h-2.6v8.8c0,1.9,0.2,3.1,2,3.1c0.7,0,1.4-0.2,2-0.5L265,41.8z"/>
	<path class="st1" d="M280.6,29.6h-0.7c-0.5,0-0.7,0.1-0.9,0.6c-1.1,2.7-3.5,7.4-9,19.9c-1.5,0.4-3.2,0.6-3.6,0.6
		c-0.3,0-0.5-0.1-0.5-0.4s0.3-0.4,0.7-0.6c1.7-0.7,3.5-2.9,5.5-7.3l-4.2-9c-1.3-2.7-1.8-3.8-2.6-3.8h-0.7v-1h7.2v1h-1.3
		c-0.4,0-0.5,0-0.5,0.3s1.3,2.8,3.9,8.7c2.6-6.1,3.3-7.8,3.3-8.4s-0.3-0.7-0.9-0.7h-1.4v-1h5.7V29.6z"/>
	<path class="st1" d="M304.1,35.2c0,4.5-3.3,7.8-7.6,7.8c-4.2,0-6.9-2.8-6.9-7.1c0-4.5,3.3-7.8,7.6-7.8
		C301.4,28.2,304.1,30.9,304.1,35.2z M297.3,42c2.8,0,3.2-3,3.2-5.2c0-2.6-0.7-7.6-4.2-7.6c-2.8,0-3.2,3.1-3.2,5.2
		C293.1,37,293.8,42,297.3,42z"/>
	<path class="st1" d="M311.2,37c0,3.8,0.1,4.5,1,4.5h1.4v1H306v-1h1.2c0.4,0,0.6,0,0.6-0.5V29.6h-2v-1h2v-2.5c0-2.8,0-3.5,0.7-4.6
		c1-1.6,2.8-2.2,4.6-2.2c1.1,0,3.8,0.5,3.8,2c0,0.7-0.5,1-1.1,1c-1.1,0-2-0.9-2.4-1.9c-0.2,0-0.3-0.1-0.5-0.1
		c-1.5,0-1.7,2.3-1.7,4.5v3.7h2.7v1h-2.7V37z"/>
	<path class="st1" d="M354.2,22.9h-1c-0.6,0-0.7,0.2-1,1l-7.1,18.5c-0.1,0.3-0.3,0.7-0.6,0.7c-0.3,0-0.4-0.3-0.6-0.8l-5.6-13.7
		l-5,13.5c-0.3,0.7-0.3,1-0.7,1c-0.3,0-0.4-0.2-0.6-0.7l-6.4-16.1c-1.3-3.3-1.5-3.4-2.2-3.4h-1v-1.1h8v1.1h-1.7
		c-0.3,0-0.4,0-0.4,0.2s0.7,1.9,1.3,3.2l4.4,10.4l3.7-9.9c-1.7-4-1.8-4-2.7-4h-1v-1.1h8.4v1.1h-1.9c-0.3,0-0.4,0-0.4,0.2
		c0,0.1,1.7,4.1,1.9,4.5l3.8,9.4l2.2-5.6c1.6-4,2.6-7.3,2.6-8c0-0.4-0.1-0.5-0.9-0.5h-1.6v-1.1h6v1.2H354.2z"/>
	<path class="st1" d="M358.9,37c0,3.8,0.1,4.5,1,4.5h1.4v1h-7.6v-1h1.2c0.4,0,0.6,0,0.6-0.5v-6.6c0-3.3,0-4.7-1.1-4.7H353v-1
		c2-0.2,3.9-0.3,5.9-0.6V37z M355.1,23.6c0-1,0.8-1.8,1.8-1.8s1.8,0.7,1.8,1.8c0,1-0.8,1.8-1.8,1.8
		C355.9,25.3,355.1,24.6,355.1,23.6z"/>
	<path class="st1" d="M372.9,31.2c0,0.2-0.2,0.4-0.4,0.4c-0.3,0-0.4-0.2-0.5-0.5c-0.6-1.3-2.3-1.7-3.5-1.7s-3,0.6-3,2
		c0,3.1,8.4,1.4,8.4,6.6c0,3.7-4,5-7,5c-1.4,0-2.8-0.2-4.1-0.7l-0.5-2.5c-0.1-0.4,0.1-0.7,0.5-0.7s0.5,0.3,0.6,0.7
		c0.4,1.4,2.4,2,3.8,2c1.5,0,3.7-0.6,3.7-2.5c0-3.2-8.4-1.4-8.4-6.6c0-2.4,2.4-4.6,6.2-4.6c1.3,0,2.7,0.2,3.9,0.7L372.9,31.2z"/>
	<path class="st1" d="M388.4,40.8c-1.5,1.6-3.7,2.2-5.8,2.2c-4.3,0-6.9-2.9-6.9-7.1c0-5.3,3.9-7.8,7.5-7.8c2,0,4.8,1.3,4.8,3.1
		c0,0.7-0.6,1.1-1.3,1.1c-1.5,0-2.4-1.7-2.4-3c-0.4-0.2-0.8-0.2-1.2-0.2c-3,0-3.8,3.3-3.8,5.7c0,3.3,1.3,6.4,5.1,6.4
		c1.3,0,2.5-0.4,3.5-1.2L388.4,40.8z"/>
	<path class="st1" d="M404,35.2c0,4.5-3.3,7.8-7.6,7.8c-4.2,0-6.9-2.8-6.9-7.1c0-4.5,3.3-7.8,7.6-7.8C401.3,28.2,404,30.9,404,35.2z
		 M397.2,42c2.8,0,3.2-3,3.2-5.2c0-2.6-0.7-7.6-4.2-7.6c-2.8,0-3.2,3.1-3.2,5.2C393,37,393.8,42,397.2,42z"/>
	<path class="st1" d="M410.8,30.5c1.8-1.3,3.4-2.3,5.1-2.3c2.6,0,3.9,1.5,3.9,4.5v4.4c0,3.8,0.1,4.5,1,4.5h1.2v1h-7.2v-1h0.9
		c0.4,0,0.6,0,0.6-0.5v-6.8c0-2.2,0-4.1-2.4-4.1c-1.1,0-2.3,0.6-3.2,1.5V37c0,3.8,0.1,4.5,1,4.5h1.1v1h-7.4v-1h1.2
		c0.4,0,0.6,0,0.6-0.5v-6.6c0-3.3,0-4.7-1.1-4.7h-1.4v-1c2-0.2,3.9-0.3,5.9-0.6v2.4H410.8z"/>
	<path class="st1" d="M433.6,31.2c0,0.2-0.2,0.4-0.4,0.4c-0.3,0-0.4-0.2-0.5-0.5c-0.6-1.3-2.3-1.7-3.5-1.7s-3,0.6-3,2
		c0,3.1,8.4,1.4,8.4,6.6c0,3.7-4,5-7,5c-1.4,0-2.8-0.2-4.1-0.7l-0.5-2.5c-0.1-0.4,0.1-0.7,0.5-0.7s0.5,0.3,0.6,0.7
		c0.4,1.4,2.4,2,3.8,2c1.5,0,3.7-0.6,3.7-2.5c0-3.2-8.4-1.4-8.4-6.6c0-2.4,2.4-4.6,6.2-4.6c1.3,0,2.7,0.2,3.9,0.7L433.6,31.2z"/>
	<path class="st1" d="M441.7,37c0,3.8,0.1,4.5,1,4.5h1.4v1h-7.6v-1h1.2c0.4,0,0.6,0,0.6-0.5v-6.6c0-3.3,0-4.7-1.1-4.7h-1.4v-1
		c2-0.2,3.9-0.3,5.9-0.6L441.7,37L441.7,37z M438,23.6c0-1,0.8-1.8,1.8-1.8s1.8,0.7,1.8,1.8c0,1-0.8,1.8-1.8,1.8
		C438.8,25.3,438,24.6,438,23.6z"/>
	<path class="st1" d="M450.4,30.5c1.8-1.3,3.4-2.3,5.1-2.3c2.6,0,3.9,1.5,3.9,4.5v4.4c0,3.8,0.1,4.5,1,4.5h1.2v1h-7.2v-1h0.9
		c0.4,0,0.6,0,0.6-0.5v-6.8c0-2.2,0-4.1-2.4-4.1c-1.1,0-2.3,0.6-3.2,1.5V37c0,3.8,0.1,4.5,1,4.5h1.1v1H445v-1h1.2
		c0.4,0,0.6,0,0.6-0.5v-6.6c0-3.3,0-4.7-1.1-4.7h-1.4v-1c2-0.2,3.9-0.3,5.9-0.6v2.4H450.4z"/>
</g>
<g>
	<path class="st1" d="M210.6,59.6h-2.1c-1.2,0-1.4,0.3-2.1,2.2l-15.2,39.6c-0.3,0.7-0.6,1.4-1.2,1.4s-0.8-0.7-1.3-1.7l-11.9-29.3
		l-10.7,28.8c-0.6,1.4-0.7,2.2-1.4,2.2c-0.6,0-0.8-0.5-1.3-1.6l-13.8-34.4c-2.8-7.1-3.3-7.2-4.8-7.2h-2.2v-2.3h17v2.3H156
		c-0.6,0-0.8,0.1-0.8,0.5c0,0.5,1.6,4,2.8,6.9l9.4,22.3l7.9-21.1c-3.7-8.6-3.9-8.6-5.7-8.6h-2.1v-2.3h17.9v2.3h-4.1
		c-0.6,0-0.8,0.1-0.8,0.4s3.5,8.7,4,9.7l8.1,20.1l4.8-12c3.4-8.5,5.6-15.6,5.6-17.1c0-0.9-0.3-1-1.9-1h-3.5v-2.3h12.9v2.2H210.6z"/>
	<path class="st1" d="M220,75.7c3.8-2.8,7.2-5,10.9-5c5.5,0,8.4,3.3,8.4,9.6v9.4c0,8.1,0.3,9.7,2.2,9.7h2.6v2.1h-15.4v-2.1h1.9
		c0.8,0,1.3-0.1,1.3-1.1V83.8c0-4.7,0-8.7-5.1-8.7c-2.4,0-4.9,1.3-6.9,3.2v11.4c0,8.1,0.3,9.7,2.2,9.7h2.4v2.1H209v-2.1h2.5
		c0.8,0,1.3-0.1,1.3-1.1V72.6c0-10.9-0.6-12.9-2.3-12.9h-2.9v-2.3c4.2-0.4,8.3-0.8,12.5-1.5v19.8H220z"/>
	<path class="st1" d="M257.2,89.7c0,8.1,0.3,9.7,2.2,9.7h3.1v2.1h-16.3v-2.1h2.5c0.8,0,1.3-0.1,1.3-1.1V84.1c0-7,0-10.1-2.4-10.1
		h-2.9v-2.1c4.2-0.3,8.4-0.6,12.6-1.2v19H257.2z M249.1,60.9c0-2.2,1.7-3.8,3.8-3.8c2.2,0,3.9,1.6,3.9,3.8c0,2.2-1.7,3.8-3.9,3.8
		C250.9,64.7,249.1,63.1,249.1,60.9z"/>
	<path class="st1" d="M283.4,100c-2.6,1.6-6.2,2.6-9.2,2.6c-5.8,0-7.5-2.5-7.5-8V74h-2.4c-0.7,0-1.3-0.1-1.3-0.8
		c0-0.6,1.3-1.5,9.7-8.8h1.4v7.5h7c-0.1,2.1-0.5,2.1-1.5,2.1H274v18.7c0,4,0.3,6.7,4.3,6.7c1.4,0,2.9-0.4,4.2-1L283.4,100z"/>
	<path class="st1" d="M310,97.3c-3.7,3.4-8.5,5.3-13.6,5.3c-9.2,0-14-6.7-14-15.4c0-8.7,5.2-16.5,14.5-16.5c6.6,0,10.2,4.4,12.8,10
		L290,85.9c0.3,6.5,2.8,12.9,10.4,12.9c3.3,0,6-1.2,8.6-3.2L310,97.3z M290.4,83.6l11.6-3.2c-1-2.7-3.1-7.4-6.5-7.4
		c-4.4,0-5.8,7.4-5.6,10.8L290.4,83.6z"/>
	<path class="st1" d="M358.8,73.9h-2.2c-0.7,0-1.2,0.5-1.6,1.5c-3.5,8.3-7.6,17.1-11.5,26c-0.4,0.9-0.6,1.2-1,1.2
		c-0.6,0-0.8-0.2-1.4-1.7l-7.6-18.1l-8.1,18c-0.3,0.6-0.6,1.8-1.4,1.8c-0.6,0-0.7-0.2-1.3-1.5L313,78.4c-1.7-4-2.4-4.4-3.3-4.4H308
		v-2.1h14.9V74h-2.8c-0.3,0-0.9,0.1-0.9,0.5c0,0.3,0.2,0.8,0.3,1.1l7.1,16.3l5.5-12l-1.5-3.5c-0.9-2.1-1.6-2.4-2.7-2.4h-1.2v-2.1
		h15.2V74h-3.3c-0.3,0-0.8,0.1-0.8,0.5s0.8,2.2,1,2.5l6.3,14.9l5.3-12.1c0.6-1.3,1.3-3.6,1.3-4.8c0-1-0.6-1-1.3-1h-2.9v-2.1h11.3
		V73.9z"/>
	<path class="st1" d="M374.8,82.6v-2c0-4.4-0.1-7-4.7-7c-1.6,0-3.4,0.5-4.7,1.4c0,3.8-1.7,7-4.7,7c-1.3,0-2.4-0.9-2.4-2.2
		c0-5.5,9.3-9,15.5-9c7.7,0,8.4,2.2,8.4,9.7v10.7c0,5.4,0.8,6.6,4.9,7.3l-2.7,4.1c-1.8,0-6.7-0.2-8.9-5.7c-2.8,2.3-7.2,5.7-11.1,5.7
		c-4,0-6.5-2.8-6.5-6.8c0-6.7,8.5-9.6,13.6-11.7L374.8,82.6z M374.8,85.1l-1.3,0.5c-4,1.6-8.5,4.2-8.5,8.4c0,2.1,1.1,3.7,3.3,3.7
		c2.5,0,4.8-1.6,6.5-3.4V85.1z"/>
	<path class="st1" d="M407.6,100c-2.6,1.6-6.2,2.6-9.2,2.6c-5.8,0-7.5-2.5-7.5-8V74h-2.4c-0.7,0-1.3-0.1-1.3-0.8
		c0-0.6,1.3-1.5,9.7-8.8h1.4v7.5h7c-0.1,2.1-0.5,2.1-1.5,2.1h-5.5v18.7c0,4,0.3,6.7,4.3,6.7c1.4,0,2.9-0.4,4.2-1L407.6,100z"/>
	<path class="st1" d="M435.5,97.3c-3.7,3.4-8.5,5.3-13.6,5.3c-9.2,0-14-6.7-14-15.4c0-8.7,5.2-16.5,14.5-16.5
		c6.6,0,10.2,4.4,12.8,10l-19.7,5.2c0.3,6.5,2.8,12.9,10.4,12.9c3.3,0,6-1.2,8.6-3.2L435.5,97.3z M415.9,83.6l11.6-3.2
		c-1-2.7-3.1-7.4-6.5-7.4c-4.4,0-5.8,7.4-5.6,10.8L415.9,83.6z"/>
	<path class="st1" d="M449,77c3.5-3.7,5.6-6.3,9-6.3c1.3,0,2.5,0.6,3.4,1.5l-0.8,4.5c-0.2,1.3-0.3,1.8-1,1.8c-1.4,0-0.5-2.4-4.1-2.4
		c-2.6,0-4.7,1.6-6.5,3.3v10.2c0,8.1,0.3,9.7,2.2,9.7h3.6v2.1h-16.9v-2.1h2.5c0.8,0,1.3-0.1,1.3-1.1V84c0-7,0-10.1-2.4-10.1h-2.9
		v-2.1c4.2-0.3,8.4-0.6,12.6-1.2L449,77L449,77z"/>
</g>
</svg>
